CaligulaDodgyMummy.sfdir
StartChar: uni0001
Encoding: 1 1 79
Width: 338
Flags: W
LayerCount: 2
Fore
SplineSet
94.2724609375 30 m 6,0,1
 67.5170533796 32.0992029468 67.5170533796 32.0992029468 35.7275390625 26 c 5,2,-1
 12.7275390625 30 l 5,3,4
 12.9885990221 35.7489333034 12.9885990221 35.7489333034 18.7275390625 40 c 6,5,-1
 45.7275390625 60 l 5,6,7
 61 93 61 93 60.7275390625 156 c 4,8,9
 61 219 61 219 65.7275390625 242 c 5,10,-1
 65.7275390625 501 l 5,11,-1
 55.7275390625 669 l 5,12,-1
 42.7275390625 730 l 5,13,-1
 25.7275390625 753 l 5,14,-1
 14 759 l 5,15,-1
 9 785 l 5,16,-1
 20 792 l 5,17,-1
 43 787 l 5,18,19
 63.6951401654 779.11613708 63.6951401654 779.11613708 111.272460938 783 c 262,20,21
 128 782 128 782 160.272460938 787 c 5,22,-1
 183.272460938 783 l 5,23,24
 183.011400978 777.251066697 183.011400978 777.251066697 177.272460938 773 c 6,25,-1
 150.272460938 753 l 5,26,27
 135 720 135 720 135.272460938 657 c 4,28,29
 135 594 135 594 130.272460938 571 c 5,30,-1
 130.272460938 312 l 5,31,-1
 140.272460938 144 l 5,32,-1
 153.272460938 83 l 5,33,-1
 170.272460938 60 l 5,34,-1
 182 54 l 5,35,-1
 187 28 l 5,36,-1
 176 21 l 5,37,-1
 158 25 l 5,38,39
 147 34 147 34 94.2724609375 30 c 6,0,1
EndSplineSet
Validated: 524321
EndChar
StartChar: exclam
Encoding: 33 33 81
Width: 244
Flags: W
LayerCount: 2
Fore
SplineSet
91.287109375 184.91015625 m 1,0,1
 79 185 79 185 66.21484375 184.299804688 c 1,2,3
 78.6396484375 227.677734375 l 1,4,-1
 64.994140625 270.5 l 1,5,-1
 63 527 l 1,6,-1
 71 548 l 5,7,-1
 66 554 l 0,8,-1
 57 553 l 1,9,-1
 64.7724609375 735.228515625 l 1,10,-1
 45.806640625 759.317382812 l 1,11,-1
 57.1787109375 765.696289062 l 1,12,-1
 69.6591796875 774.016601562 l 1,13,-1
 131.447265625 745.545898438 l 257,14,15
 153 755 153 755 173.604492188 765.237304688 c 1,16,-1
 189.580078125 746.322265625 l 1,17,18
 166.171875 721.583007812 l 1,19,-1
 125.012695312 269.168945312 l 1,20,21
 122.959960938 214.198242188 l 1,22,23
 120 186 120 186 91.287109375 184.91015625 c 1,0,1
135 83 m 1,24,-1
 85 8 l 1,25,26
 50 43 50 43 31 80 c 1,27,28
 85 117 85 117 94 145 c 1,29,30
 118 100 118 100 135 83 c 1,24,-1
EndSplineSet
EndChar
StartChar: quotedbl
Encoding: 34 34 4
Width: 277
Flags: W
HStem: 572 192
VStem: 18 242
LayerCount: 2
Fore
SplineSet
122 701 m 1,0,1
 116 692 116 692 92 633 c 0,2,3
 70 580 70 580 61 572 c 1,4,5
 75 608 75 608 75 627 c 0,6,7
 75 641 75 641 69 649 c 0,8,9
 40 678 40 678 18 698 c 1,10,11
 61 729 61 729 78 764 c 1,12,13
 91 725 91 725 122 701 c 1,0,1
260 704 m 1,14,15
 254 695 254 695 230 636 c 0,16,17
 208 583 208 583 199 575 c 1,18,19
 213 611 213 611 213 630 c 0,20,21
 213 644 213 644 207 652 c 0,22,23
 178 681 178 681 156 701 c 1,24,25
 199 732 199 732 216 767 c 1,26,27
 229 728 229 728 260 704 c 1,14,15
EndSplineSet
Validated: 1
EndChar
StartChar: numbersign
Encoding: 35 35 85
Width: 851
Flags: W
LayerCount: 2
Fore
SplineSet
53.0400390625 273.954101562 m 2,0,1
 63.0216564654 302.322290673 63.0216564654 302.322290673 65.0517578125 332.534179688 c 1,2,-1
 75.328125 355.495117188 l 1,3,4
 81.0775217973 354.99323286 81.0775217973 354.99323286 83.6630859375 349.399414062 c 2,5,-1
 96.2314453125 322.208007812 l 1,6,7
 121 300 121 300 127.764648438 300.42578125 c 0,8,9
 191 300 191 300 213.711914062 294.598632812 c 1,10,-1
 472.700195312 292.108398438 l 1,11,-1
 646.915039062 290.243164062 l 1,12,-1
 693.84765625 295.6875 l 1,13,-1
 711.345703125 308.012695312 l 1,14,-1
 715.963867188 316.584960938 l 1,15,-1
 735.641601562 320.073242188 l 1,16,-1
 740.849609375 311.944335938 l 1,17,-1
 736.905273438 295.084960938 l 1,18,19
 731.149076902 286.229347183 731.149076902 286.229347183 733.387695312 255.983398438 c 258,20,21
 732 242 732 242 736.053710938 219.962890625 c 1,22,-1
 732.864257812 203.095703125 l 1,23,24
 728.773080415 202.994380056 728.773080415 202.994380056 725.354492188 207.573242188 c 2,25,-1
 710.44140625 227.547851562 l 1,26,27
 682 240 682 240 638.028320312 239.244140625 c 0,28,29
 591 238 591 238 543.076171875 236.893554688 c 1,30,-1
 284.087890625 239.383789062 l 1,31,-1
 116 231 l 1,32,-1
 89.77734375 214.447265625 l 1,33,-1
 62.1904296875 197.668945312 l 1,34,-1
 53 186 l 1,35,-1
 25.7001953125 181.25 l 1,36,-1
 21.7255859375 192.31640625 l 1,37,-1
 30.634765625 210.27734375 l 1,38,39
 43 224 43 224 53.0400390625 273.954101562 c 2,0,1
99.501953125 500.588867188 m 2,40,41
 105.991114102 523.870412153 105.991114102 523.870412153 107.969726562 552.725585938 c 1,42,-1
 115.21484375 573.16015625 l 1,43,44
 118.812401353 573.958375945 118.812401353 573.958375945 121.090820312 567.735351562 c 2,45,-1
 129.951171875 543.53515625 l 1,46,47
 154 529 154 529 177.700195312 529.364257812 c 0,48,49
 214 530 214 530 273.947265625 531.172851562 c 1,50,-1
 545.935546875 541.682617188 l 1,51,-1
 686.021484375 533.486328125 l 1,52,-1
 741.032226562 543.788085938 l 1,53,-1
 761.877929688 557.713867188 l 1,54,-1
 767.37890625 567.400390625 l 1,55,-1
 790.821289062 571.341796875 l 1,56,-1
 797.025390625 562.15625 l 1,57,-1
 792.326171875 543.107421875 l 1,58,59
 785.60094428 535.551662931 785.60094428 535.551662931 788.135742188 503.076171875 c 258,60,61
 787 492 787 492 791.3125 462.375976562 c 1,62,-1
 787.512695312 443.318359375 l 1,63,64
 778 449 778 449 767.765625 454.1875 c 2,65,-1
 750 476.756835938 l 1,66,67
 704 486 704 486 674.534179688 484.162109375 c 0,68,69
 638 484 638 484 602.311523438 483.467773438 c 1,70,-1
 343.323242188 485.958007812 l 1,71,-1
 153.19140625 476.475585938 l 1,72,-1
 124.120117188 459.944335938 l 1,73,-1
 105.952148438 432.6953125 l 1,74,-1
 99.4736328125 422.309570312 l 1,75,-1
 80.2265625 418.08203125 l 1,76,-1
 77.4248046875 427.931640625 l 1,77,-1
 83.7060546875 443.916992188 l 1,78,79
 92 452 92 452 99.501953125 500.588867188 c 2,40,41
431.0234375 30 m 2,80,81
 405.330647927 32.0590586913 405.330647927 32.0590586913 371.408203125 26 c 1,82,-1
 349.478515625 30 l 1,83,84
 350.872699793 35.4979894281 350.872699793 35.4979894281 358.155273438 40 c 2,85,-1
 390.5078125 60 l 1,86,87
 422 57 422 57 429.202148438 88 c 0,88,89
 446 151 446 151 457.219726562 174 c 1,90,-1
 541.5390625 514 l 1,91,-1
 571.401367188 642.72265625 l 1,92,-1
 574.259765625 707.397460938 l 1,93,-1
 564.94140625 731.783203125 l 1,94,-1
 556.243164062 738.14453125 l 1,95,-1
 557.92578125 765.7109375 l 1,96,-1
 568.989257812 773.131835938 l 1,97,-1
 587.604492188 767.831054688 l 1,98,99
 601.555653788 759.272588209 601.555653788 759.272588209 645.35546875 763.58984375 c 258,100,101
 665 762 665 762 688.383789062 767.831054688 c 1,102,-1
 707.229492188 763.58984375 l 1,103,104
 705.93044429 757.683767369 705.93044429 757.683767369 699.772460938 752.987304688 c 2,105,-1
 671.969726562 731.783203125 l 1,106,107
 672 712 672 712 637 630 c 0,108,109
 613 573 613 573 611.819335938 571 c 1,110,-1
 541.499023438 302 l 1,111,-1
 488 117 l 1,112,-1
 486.208984375 83 l 1,113,-1
 497.052734375 60 l 1,114,-1
 525.174804688 54 l 1,115,-1
 523.215820312 28 l 1,116,-1
 510.342773438 21 l 1,117,-1
 493.413085938 25 l 1,118,119
 485 34 485 34 431.0234375 30 c 2,80,81
187.750976562 30 m 2,120,121
 162.247637255 32.0438758629 162.247637255 32.0438758629 128.135742188 26 c 1,122,-1
 106.206054688 30 l 1,123,124
 107.90651299 35.6873248824 107.90651299 35.6873248824 114.8828125 40 c 2,125,-1
 147.235351562 60 l 1,126,127
 171 93 171 93 187.9296875 156 c 128,-1,128
 205 219 205 219 215.947265625 242 c 1,129,-1
 285.266601562 501 l 1,130,-1
 322.307617188 662.674804688 l 1,131,-1
 325.166015625 727.349609375 l 1,132,-1
 315.84765625 751.735351562 l 1,133,-1
 307.1484375 758.096679688 l 1,134,-1
 308.83203125 785.663085938 l 1,135,-1
 319.895507812 793.083984375 l 1,136,-1
 338.510742188 787.783203125 l 1,137,138
 354.247641223 779.400753026 354.247641223 779.400753026 396.26171875 783.541992188 c 258,139,140
 411 782 411 782 439.290039062 787.783203125 c 1,141,-1
 458.135742188 783.541992188 l 1,142,143
 455.999043872 776.997071285 455.999043872 776.997071285 450.678710938 772.939453125 c 2,144,-1
 422.875976562 751.735351562 l 1,145,146
 404 719 404 719 387.90625 649.952148438 c 0,147,148
 372 578 372 578 368.546875 571 c 1,149,-1
 289.2265625 323 l 1,150,-1
 237.262695312 132 l 1,151,-1
 233.936523438 71 l 1,152,-1
 271.780273438 60 l 1,153,-1
 281.90234375 54 l 1,154,-1
 279.943359375 28 l 1,155,-1
 267.0703125 21 l 1,156,-1
 250.140625 25 l 1,157,158
 242 34 242 34 187.750976562 30 c 2,120,121
EndSplineSet
EndChar
StartChar: ampersand
Encoding: 38 38 5
Width: 912
Flags: W
LayerCount: 2
Fore
SplineSet
246 5 m 1,0,-1
 168 18 l 1,1,2
 111 49 111 49 109 50 c 0,3,4
 77 72 77 72 62 100 c 0,5,6
 51 127 51 127 51 156 c 0,7,8
 51 293 51 293 249 448 c 1,9,-1
 256 452 l 1,10,11
 251 461 251 461 209 521 c 0,12,13
 180 562 180 562 174 588 c 2,14,-1
 164 633 l 1,15,16
 168 675 168 675 172 689 c 0,17,18
 182 721 182 721 209 745 c 2,19,-1
 249 776 l 1,20,21
 291 792 291 792 328 792 c 0,22,23
 390 792 390 792 444 749 c 1,24,-1
 471 715 l 1,25,26
 477 698 477 698 477 678 c 0,27,28
 477 667 477 667 475 653 c 1,29,30
 462 613 462 613 418 566 c 0,31,32
 401 547 401 547 338 489 c 1,33,-1
 334 476 l 1,34,-1
 355 462 l 1,35,-1
 386 421 l 1,36,-1
 434 380 l 1,37,-1
 530 274 l 1,38,-1
 577 226 l 1,39,40
 680 355 680 355 680 493 c 1,41,-1
 676 499 l 1,42,-1
 659 530 l 1,43,-1
 673 530 l 1,44,-1
 820 524 l 1,45,-1
 813 510 l 1,46,-1
 786 506 l 1,47,-1
 751 465 l 2,48,49
 739 451 739 451 714 383 c 1,50,-1
 653 267 l 1,51,-1
 653 257 l 1,52,-1
 639 236 l 1,53,-1
 608 199 l 1,54,55
 656 153 656 153 704 108 c 0,56,57
 759 59 759 59 802 35 c 1,58,-1
 861 15 l 1,59,-1
 847 1 l 1,60,61
 744 15 744 15 714 15 c 1,62,63
 666 59 666 59 591 123 c 1,64,-1
 567 151 l 1,65,66
 529 102 529 102 458 49 c 1,67,68
 374 0 374 0 278 0 c 0,69,70
 266 0 266 0 256 1 c 1,71,-1
 246 5 l 1,0,-1
263 39 m 1,72,-1
 273 35 l 1,73,74
 303 37 303 37 333 38 c 0,75,76
 368 40 368 40 393 49 c 2,77,-1
 416 59 l 1,78,-1
 434 69 l 1,79,-1
 465 93 l 1,80,-1
 506 121 l 1,81,-1
 543 178 l 1,82,-1
 509 216 l 1,83,-1
 270 442 l 1,84,85
 129 314 129 314 129 195 c 0,86,87
 129 168 129 168 137 141 c 2,88,-1
 144 121 l 1,89,90
 163 84 163 84 198 61.5 c 128,-1,91
 233 39 233 39 263 39 c 1,72,-1
304 503 m 1,92,-1
 314 503 l 1,93,94
 419 585 419 585 419 669 c 0,95,96
 419 693 419 693 410 715 c 1,97,-1
 393 742 l 1,98,99
 358 774 358 774 322 774 c 0,100,101
 304 774 304 774 283 766 c 2,102,-1
 266 759 l 1,103,-1
 236 718 l 1,104,105
 223 692 223 692 223 664 c 0,106,107
 223 619 223 619 256 564 c 1,108,-1
 304 503 l 1,92,-1
EndSplineSet
Validated: 1
EndChar
StartChar: quotesingle
Encoding: 39 39 6
Width: 129
Flags: W
LayerCount: 2
Fore
SplineSet
122 736 m 1,0,1
 116 727 116 727 92 668 c 0,2,3
 70 615 70 615 61 607 c 1,4,5
 75 643 75 643 75 662 c 0,6,7
 75 676 75 676 69 684 c 0,8,9
 40 713 40 713 18 733 c 1,10,11
 61 764 61 764 78 799 c 1,12,13
 91 760 91 760 122 736 c 1,0,1
EndSplineSet
Validated: 1
EndChar
StartChar: asterisk
Encoding: 42 42 90
Width: 467
Flags: W
HStem: 499.377 36.7822<278.545 382.494>
VStem: 94.6152 23.6699<351.29 359.784> 217.559 35.8672<450.159 475.525 545.918 688.871>
LayerCount: 2
Fore
SplineSet
21.296875 526.2265625 m 0,0,1
 22 541 22 541 18.998046875 569.340820312 c 1,2,-1
 21.296875 586.278320312 l 1,3,4
 24.6332770818 586.027562245 24.6332770818 586.027562245 27.04296875 581.859375 c 2,5,-1
 38.5380859375 561.975585938 l 1,6,7
 76 540 76 540 92.4326171875 539.841796875 c 0,8,9
 129 540 129 540 141.860351562 536.159179688 c 1,10,-1
 208 524 l 5,11,-1
 123.130859375 593.642578125 l 1,12,-1
 97.2080078125 619.467773438 l 1,13,-1
 74.013671875 638.119140625 l 1,14,-1
 54.9130859375 642.422851562 l 1,15,-1
 57.6416015625 665.37890625 l 1,16,-1
 82.2001953125 685.465820312 l 1,17,-1
 112.215820312 694.073242188 l 1,18,19
 123.130859375 659.639648438 l 1,20,21
 138 632 138 632 153.146484375 605.12109375 c 1,22,-1
 216.9453125 545.317382812 l 1,23,-1
 216.672851562 576.247070312 l 1,24,-1
 210.94921875 688.87109375 l 1,25,-1
 192.118164062 726.473632812 l 1,26,-1
 180.211914062 740.374023438 l 1,27,-1
 172 744 l 1,28,-1
 168.498046875 759.713867188 l 1,29,-1
 176.200195312 763.944335938 l 1,30,-1
 192.307617188 760.922851562 l 2,31,32
 213 757 213 757 240.12109375 758.504882812 c 0,33,34
 262 759 262 759 274.435546875 760.922851562 c 1,35,-1
 290.541992188 758.504882812 l 1,36,37
 289.965686072 754.778103263 289.965686072 754.778103263 286.340820312 752.4609375 c 2,38,-1
 267.432617188 740.374023438 l 1,39,40
 248 705 248 705 248.059570312 685.791015625 c 0,41,42
 248 648 248 648 244.557617188 633.815429688 c 1,43,-1
 252.540039062 545.91796875 l 1,44,-1
 267.751953125 563.513671875 l 1,45,-1
 324 638 l 1,46,-1
 333 643 l 1,47,-1
 342 665 l 1,48,-1
 344 687 l 1,49,-1
 360 681 l 1,50,-1
 394 665 l 2,51,52
 393 651 l 1,53,-1
 381 651 l 1,54,55
 374 644 l 2,56,-1
 357 624 l 1,57,58
 333 602 333 602 328 594 c 0,59,60
 324 586 324 586 319.498046875 578.931640625 c 1,61,-1
 278.544921875 536.159179688 l 1,62,-1
 290.71484375 536.159179688 l 1,63,-1
 387.26953125 543.5234375 l 1,64,-1
 398.5390625 554.500976562 l 1,65,-1
 411.758789062 567.01953125 l 1,66,-1
 415.20703125 575.657226562 l 1,67,-1
 430.150390625 579.337890625 l 1,68,-1
 434.172851562 571.23828125 l 1,69,-1
 431.299804688 554.299804688 l 2,70,71
 428 535 428 535 429 504.022460938 c 0,72,73
 430 480 430 480 431.299804688 467.9375 c 1,74,-1
 429 451 l 1,75,76
 425.806806815 451 425.806806815 451 423.252929688 455.41796875 c 2,77,-1
 411.758789062 475.301757812 l 1,78,79
 391 496 391 496 381.67578125 496.08203125 c 0,80,81
 346 496 346 496 332.2265625 499.71484375 c 1,82,-1
 268.356445312 499.376953125 l 1,83,-1
 282.204101562 484.715820312 l 1,84,-1
 327.4296875 442.444335938 l 1,85,-1
 364.123046875 417.361328125 l 1,86,-1
 371.958007812 416.065429688 l 1,87,-1
 380.21484375 419.579101562 l 1,88,-1
 393.228515625 411.024414062 l 1,89,-1
 390.598632812 402.314453125 l 1,90,-1
 377.145507812 392.522460938 l 2,91,92
 372 390 372 390 367 386 c 0,93,94
 355 377 355 377 344.2734375 358.85546875 c 1,95,-1
 331.224609375 348.634765625 l 1,96,97
 329.152088631 351.769930895 329.152088631 351.769930895 330.15625 356.037109375 c 2,98,-1
 335.471679688 378.625 l 1,99,100
 323 397 323 397 301.362304688 424.53515625 c 0,101,102
 301 425 301 425 286.8671875 428.060546875 c 1,103,-1
 253.42578125 479.788085938 l 1,104,-1
 253.42578125 473.84375 l 1,105,-1
 260.4296875 372.309570312 l 1,106,-1
 269.534179688 335.442382812 l 1,107,-1
 281.438476562 321.541992188 l 1,108,-1
 289.651367188 317.916015625 l 1,109,-1
 293.153320312 302.202148438 l 1,110,-1
 285.44921875 297.971679688 l 1,111,-1
 272.84375 300.388671875 l 2,112,113
 259 303 259 303 228.21484375 303.41015625 c 0,114,115
 203 303 203 303 187.21484375 300.993164062 c 1,116,-1
 171.108398438 303.41015625 l 1,117,118
 172.10003945 307.402787536 172.10003945 307.402787536 175.310546875 309.455078125 c 2,119,-1
 194.21875 321.541992188 l 1,120,121
 215 358 215 358 214.451171875 378.827148438 c 0,122,123
 215 417 215 417 217.953125 430.803710938 c 1,124,-1
 217.55859375 475.525390625 l 1,125,-1
 213.8828125 468.624023438 l 1,126,-1
 138.138671875 410 l 1,127,-1
 115.93359375 378.462890625 l 1,128,-1
 114.944335938 359.784179688 l 1,129,-1
 118.28515625 351.100585938 l 1,130,-1
 110.149414062 337.415039062 l 1,131,-1
 101.8671875 340.181640625 l 1,132,-1
 94.615234375 351.290039062 l 1,133,134
 93 364 93 364 82.541015625 370.186523438 c 0,135,136
 71.5725622225 377.276286212 71.5725622225 377.276286212 66.1279296875 384.962890625 c 2,137,-1
 56.4091796875 398.68359375 l 1,138,139
 56.0323951874 401.73743662 56.0323951874 401.73743662 63.4482421875 399.807617188 c 2,140,-1
 84.9287109375 394.217773438 l 1,141,-1
 122.307617188 430.745117188 l 2,142,143
 141 449 141 449 159.84375 464.759765625 c 1,144,-1
 209.084960938 503.973632812 l 1,145,-1
 86.81640625 492.349609375 l 1,146,-1
 51.7568359375 482.776367188 l 1,147,-1
 38.5380859375 470.2578125 l 1,148,-1
 35.0908203125 461.620117188 l 1,149,-1
 20.1474609375 457.938476562 l 1,150,-1
 16.1240234375 466.0390625 l 1,151,-1
 18.4228515625 479.295898438 l 2,152,153
 19 483 19 483 21.296875 526.2265625 c 0,0,1
EndSplineSet
Validated: 525345
EndChar
StartChar: plus
Encoding: 43 43 78
Width: 700
Flags: W
LayerCount: 2
Fore
SplineSet
33.7216796875 363.020507812 m 0,0,1
 35.046875 383.603515625 35.046875 383.603515625 30.3515625 423.122070312 c 1,2,-1
 33.7216796875 446.733398438 l 1,3,4
 38.8330078125 446.0234375 38.8330078125 446.0234375 42.146484375 440.573242188 c 2,5,-1
 58.9970703125 412.85546875 l 1,6,7
 114 382 114 382 138 382 c 0,8,9
 191 382 191 382 210.455078125 376.8671875 c 1,10,-1
 320.640380634 376.8671875 l 1,11,-1
 320.123046875 432.75 l 1,12,-1
 311.734375 589.747070312 l 1,13,-1
 284.127929688 642.165039062 l 1,14,-1
 266.67578125 661.54296875 l 1,15,-1
 254.63671875 666.59765625 l 1,16,-1
 249.50390625 688.502929688 l 1,17,-1
 260.795898438 694.400390625 l 1,18,-1
 284.407226562 690.1875 l 2,19,20
 311.322265625 683.924804688 311.322265625 683.924804688 354.495117188 686.817382812 c 0,21,22
 372 686 372 686 404.797851562 690.1875 c 1,23,-1
 428.409179688 686.817382812 l 1,24,25
 427.990234375 681.881835938 427.990234375 681.881835938 422.25 678.392578125 c 2,26,-1
 394.532226562 661.54296875 l 1,27,28
 379 634 379 634 379.133789062 580.662109375 c 0,29,30
 379 528 379 528 374 508.208007812 c 1,31,-1
 374 376.8671875 l 1,32,-1
 428.662109375 376.8671875 l 1,33,-1
 570.202148438 387.1328125 l 1,34,-1
 623.471679688 415.935546875 l 1,35,-1
 642.849609375 433.387695312 l 1,36,-1
 647.904296875 445.426757812 l 1,37,-1
 669.809570312 450.559570312 l 1,38,-1
 675.70703125 439.267578125 l 1,39,-1
 671.494140625 415.65625 l 2,40,41
 664.901367188 393.670898438 664.901367188 393.670898438 668.124023438 345.568359375 c 0,42,43
 667 324 667 324 671.494140625 295.265625 c 1,44,-1
 668.124023438 271.654296875 l 1,45,46
 663.243164062 271.983398438 663.243164062 271.983398438 659.69921875 277.813476562 c 2,47,-1
 642.849609375 305.53125 l 1,48,49
 615 321 615 321 562 321 c 128,-1,50
 509 321 509 321 489.514648438 326.063476562 c 1,51,-1
 374 325.482700757 l 1,52,-1
 374 290 l 1,53,-1
 384.266601562 148.459960938 l 1,54,-1
 397.612304688 97.0673828125 l 1,55,-1
 415.063476562 77.6904296875 l 1,56,-1
 427.103515625 72.634765625 l 1,57,-1
 432.236328125 50.73046875 l 1,58,-1
 420.943359375 44.8330078125 l 1,59,-1
 402.46484375 48.2021484375 l 2,60,61
 387 55 387 55 337.04296875 52.4150390625 c 0,62,63
 311.438476562 54.0634765625 311.438476562 54.0634765625 276.94140625 49.044921875 c 1,64,-1
 253.330078125 52.4150390625 l 1,65,66
 253.935546875 57.462890625 253.935546875 57.462890625 259.490234375 60.83984375 c 2,67,-1
 287.208007812 77.6904296875 l 1,68,69
 317 128 317 128 316.8671875 157.544921875 c 0,70,71
 317 211 317 211 322 230 c 1,72,-1
 321.118532569 325.216827317 l 1,73,-1
 285.567382812 325.038085938 l 1,74,-1
 129.766601562 315.796875 l 1,75,-1
 78.3740234375 302.451171875 l 1,76,-1
 58.9970703125 285 l 1,77,-1
 53.94140625 272.959960938 l 1,78,-1
 32.037109375 267.827148438 l 1,79,-1
 26.1396484375 279.120117188 l 1,80,-1
 29.5087890625 297.598632812 l 1,81,82
 37 308 37 308 33.7216796875 363.020507812 c 0,0,1
EndSplineSet
Validated: 524321
EndChar
StartChar: comma
Encoding: 44 44 7
Width: 152
Flags: W
LayerCount: 2
Fore
SplineSet
128 64 m 1,0,1
 122 55 122 55 98 -4 c 0,2,3
 76 -57 76 -57 67 -65 c 1,4,5
 81 -29 81 -29 81 -10 c 0,6,7
 81 4 81 4 75 12 c 0,8,9
 46 41 46 41 24 61 c 1,10,11
 67 92 67 92 84 127 c 1,12,13
 97 88 97 88 128 64 c 1,0,1
EndSplineSet
Validated: 1
EndChar
StartChar: hyphen
Encoding: 45 45 82
Width: 530
Flags: W
HStem: 338.134 39.8662<117 360.461>
LayerCount: 2
Fore
SplineSet
56 347 m 2,0,1
 49.3544921875 407.266601562 l 1,2,-1
 52.724609375 430.877929688 l 1,3,4
 59.5632025866 427.232821816 59.5632025866 427.232821816 61.1494140625 424.717773438 c 2,5,-1
 78 398 l 1,6,7
 94 392 l 0,8,9
 96 385 96 385 97 378 c 1,10,-1
 273 379 l 1,11,-1
 402.068359375 388.330078125 l 1,12,-1
 459 395 l 1,13,-1
 468.142578125 415.120117188 l 1,14,-1
 473.197265625 427.159179688 l 1,15,-1
 495.102539062 432.291992188 l 1,16,-1
 501 421 l 1,17,-1
 495 397 l 1,18,19
 491 352 l 258,20,21
 483 294 l 1,22,-1
 480 284 l 1,23,24
 473.666015625 284.223632812 l 2,25,-1
 457.4609375 315.67578125 l 1,26,27
 426 334 426 334 411.4609375 333.67578125 c 0,28,29
 358 334 358 334 339.006835938 338.809570312 c 1,30,-1
 280.337890625 338.133789062 l 1,31,-1
 117 333 l 1,32,-1
 84.3740234375 302.451171875 l 1,33,-1
 64.9970703125 285 l 1,34,-1
 59.94140625 272.959960938 l 1,35,-1
 38.037109375 267.827148438 l 1,36,-1
 32.1396484375 279.120117188 l 1,37,-1
 46 302 l 1,38,39
 56 347 l 2,0,1
EndSplineSet
Validated: 524321
EndChar
StartChar: period
Encoding: 46 46 8
Width: 147
Flags: W
LayerCount: 2
Fore
SplineSet
126 64 m 1,0,1
 100 25 100 25 71 0 c 1,2,3
 42 21 42 21 22 61 c 1,4,5
 65 92 65 92 82 127 c 1,6,7
 94 88 94 88 126 64 c 1,0,1
EndSplineSet
Validated: 1
EndChar
StartChar: slash
Encoding: 47 47 79
Width: 359
Flags: W
HStem: -48 19<-66.7783 -54.7783> 785 20G<317.044 321.789> 785 20G<317.044 321.789>
LayerCount: 2
Fore
SplineSet
11.2216796875 -45 m 2,0,1
 4.91483915866 -44.0047457695 4.91483915866 -44.0047457695 -66.7783203125 -48 c 1,2,-1
 -72.857421875 -39 l 1,3,4
 -72.009563732 -28.1226946205 -72.009563732 -28.1226946205 -63.95703125 -29 c 2,5,-1
 -54.7783203125 -30 l 1,6,7
 -36.7783203125 -11 l 0,8,9
 -27 0 -27 0 -18 11 c 1,10,-1
 74 222 l 1,11,-1
 229.310546875 685 l 1,12,-1
 240 746 l 1,13,-1
 240 766 l 1,14,-1
 223.22265625 787 l 1,15,-1
 221.267578125 802 l 1,16,-1
 234.297851562 809 l 1,17,-1
 245.4921875 808 l 1,18,19
 299.016596258 803.998759339 299.016596258 803.998759339 299.043945312 804 c 258,20,21
 313 803 313 803 321.087890625 805 c 1,22,-1
 321.7890625 795 l 1,23,-1
 315.372070312 781 l 2,24,-1
 303.232421875 774 l 1,25,26
 289.232421875 734 l 0,27,28
 270 674 270 674 250.287109375 613 c 1,29,-1
 133.879882812 271 l 1,30,-1
 81.232421875 138 l 1,31,-1
 58.6474609375 48 l 1,32,-1
 45.232421875 -8 l 1,33,-1
 53.232421875 -24 l 1,34,-1
 60.232421875 -37 l 1,35,-1
 52.232421875 -48 l 1,36,-1
 30.232421875 -48 l 1,37,38
 11 -45 11 -45 11.2216796875 -45 c 2,0,1
EndSplineSet
Validated: 524321
EndChar
StartChar: zero
Encoding: 48 48 9
Width: 791
Flags: W
LayerCount: 2
Fore
SplineSet
332.3828125 392.66796875 m 0,0,1
 334 418 334 418 352.44140625 440.333984375 c 0,2,3
 374.573265316 469.040641398 374.573265316 469.040641398 396 467 c 4,4,5
 444 463 444 463 456 433 c 4,6,7
 457.681095364 428.47290396 457.681095364 428.47290396 459.8828125 405.66796875 c 0,8,9
 475 387 475 387 436.8828125 344.66796875 c 0,10,11
 420 326 420 326 393.3828125 329.41796875 c 0,12,13
 368 333 368 333 349.3828125 350.66796875 c 0,14,15
 331 369 331 369 332.3828125 392.66796875 c 0,0,1
736 222 m 0,16,17
 688 131 688 131 632 88 c 2,18,-1
 606 68 l 1,19,-1
 589 62 l 1,20,-1
 573 49 l 1,21,22
 542 37 542 37 479 13 c 1,23,-1
 319 10 l 1,24,-1
 312 13 l 1,25,-1
 224 39 l 1,26,27
 133 79 133 79 81 153 c 2,28,-1
 51 196 l 1,29,-1
 38 225 l 1,30,-1
 35 241 l 1,31,32
 11 314 11 314 11 383 c 0,33,34
 11 568 11 568 182 695 c 1,35,36
 296 758 296 758 402 758 c 256,37,38
 508 758 508 758 612 695 c 1,39,-1
 645 669 l 1,40,-1
 690 620 l 1,41,-1
 720 587 l 1,42,-1
 736 564 l 1,43,44
 780 475 780 475 780 389 c 0,45,46
 780 304 780 304 736 222 c 0,16,17
700 385 m 0,47,48
 699 467 699 467 674 542 c 0,49,50
 658 590 658 590 617 635 c 0,51,52
 573 684 573 684 521 705 c 0,53,54
 458 730 458 730 399 730 c 0,55,56
 389 730 389 730 329 721 c 2,57,-1
 309 718 l 1,58,-1
 276 705 l 2,59,60
 184 669 184 669 125 563 c 0,61,62
 80.3571428571 482.642857143 80.3571428571 482.642857143 80.3571428571 401.488520408 c 0,63,64
 80.3571428571 391.75 80.3571428571 391.75 81 382 c 2,65,-1
 87 284 l 1,66,-1
 94 274 l 1,67,-1
 100 261 l 1,68,69
 106 238 106 238 126 193 c 1,70,-1
 136 176 l 1,71,-1
 149 153 l 1,72,-1
 185 114 l 2,73,74
 263 29 263 29 364 29 c 1,75,-1
 374 26 l 1,76,77
 443 33 443 33 477 41 c 0,78,79
 536 55 536 55 586 88 c 1,80,-1
 603 108 l 2,81,82
 648 161 648 161 674 235 c 0,83,84
 700.035714286 309.25 700.035714286 309.25 700.035714286 379.780612245 c 0,85,86
 700.035714286 382.392857143 700.035714286 382.392857143 700 385 c 0,47,48
EndSplineSet
EndChar
StartChar: one
Encoding: 49 49 10
Width: 271
Flags: W
HStem: 20 21G<223.5 250> 27 16<25 50.4067 51.598 61>
VStem: 118 66<116 633.09>
LayerCount: 2
Fore
SplineSet
250 20 m 1,0,-1
 240 20 l 1,1,2
 207 29 207 29 161 29 c 0,3,4
 143 29 143 29 106.5 27.5 c 128,-1,5
 70 26 70 26 51 26 c 256,6,7
 32 26 32 26 15 27 c 1,8,-1
 25 43 l 1,9,-1
 61 50 l 1,10,-1
 78 70 l 1,11,-1
 98 90 l 1,12,13
 118 171 118 171 118 284 c 0,14,15
 118 315 118 315 115 390 c 0,16,17
 113 458 113 458 114 496 c 0,18,19
 115 574 115 574 98 635 c 1,20,-1
 75 665 l 1,21,-1
 55 665 l 1,22,-1
 41 655 l 1,23,-1
 22 652 l 1,24,-1
 22 659 l 1,25,-1
 35 668 l 1,26,-1
 51 682 l 1,27,-1
 181 761 l 1,28,-1
 201 758 l 1,29,30
 189 718 189 718 186 661 c 0,31,32
 183 613 183 613 181 566 c 1,33,-1
 184 520 l 1,34,-1
 181 302 l 1,35,-1
 184 229 l 1,36,-1
 187 116 l 1,37,-1
 201 74 l 1,38,39
 216 43 216 43 250 30 c 1,40,-1
 250 20 l 1,0,-1
EndSplineSet
Validated: 33
EndChar
StartChar: two
Encoding: 50 50 11
Width: 624
Flags: W
LayerCount: 2
Fore
SplineSet
607 142 m 1,0,-1
 571 36 l 1,1,-1
 373 36 l 1,2,-1
 65 39 l 1,3,-1
 59 36 l 1,4,-1
 49 36 l 1,5,-1
 59 56 l 1,6,-1
 95 62 l 1,7,-1
 108 79 l 1,8,-1
 125 83 l 1,9,-1
 141 96 l 1,10,11
 219 149 219 149 257 195 c 2,12,-1
 273 215 l 1,13,-1
 330 281 l 2,14,15
 454 427 454 427 454 565 c 0,16,17
 454 641 454 641 416 711 c 1,18,19
 350 774 350 774 261 774 c 0,20,21
 242 774 242 774 201 771 c 1,22,23
 150 761 150 761 109.5 710.5 c 128,-1,24
 69 660 69 660 71 615 c 1,25,-1
 82 572 l 1,26,-1
 91 555 l 1,27,-1
 105 543 l 1,28,-1
 115 525 l 1,29,-1
 111 519 l 1,30,31
 102 515 102 515 92 515 c 0,32,33
 56 515 56 515 29 555 c 2,34,-1
 25 562 l 1,35,36
 17 589 17 589 17 615 c 0,37,38
 17 679 17 679 75 737 c 1,39,40
 77 746 77 746 84.5 748.5 c 128,-1,41
 92 751 92 751 95 757 c 0,42,43
 134 777 134 777 164 787 c 0,44,45
 180 791 180 791 247 800 c 1,46,47
 315 797 315 797 355 786 c 0,48,49
 411 770 411 770 462 731 c 0,50,51
 492 707 492 707 518 654 c 1,52,-1
 525 635 l 2,53,54
 532 610 532 610 532 582 c 0,55,56
 532 552 532 552 518 483 c 1,57,-1
 429 331 l 1,58,-1
 399 297 l 2,59,60
 391 292 391 292 371 263.5 c 128,-1,61
 351 235 351 235 336 228 c 1,62,-1
 290 178 l 1,63,-1
 214 105 l 1,64,-1
 204 99 l 1,65,-1
 227 96 l 1,66,-1
 336 93 l 1,67,-1
 542 102 l 1,68,-1
 558 113 l 1,69,-1
 574 115 l 1,70,-1
 594 135 l 1,71,-1
 607 142 l 1,0,-1
EndSplineSet
Validated: 33
EndChar
StartChar: three
Encoding: 51 51 12
Width: 636
Flags: W
LayerCount: 2
Fore
SplineSet
604 294 m 1,0,1
 604 211 604 211 541 139 c 1,2,3
 524 110 524 110 495 93 c 1,4,-1
 465 69 l 2,5,6
 455 66 455 66 435 53.5 c 128,-1,7
 415 41 415 41 402 39 c 2,8,-1
 379 30 l 2,9,10
 358 26 358 26 325 25 c 0,11,12
 281 24 281 24 270 23 c 2,13,-1
 260 23 l 2,14,15
 200 23 200 23 105 52 c 1,16,-1
 38 86 l 1,17,-1
 35 149 l 1,18,-1
 35 168 l 1,19,-1
 32 195 l 1,20,-1
 35 202 l 1,21,-1
 55 172 l 1,22,-1
 68 145 l 1,23,-1
 88 123 l 2,24,25
 90 115 90 115 95 111 c 0,26,27
 105 105 105 105 108 102 c 2,28,-1
 157 69 l 1,29,-1
 194 62 l 1,30,-1
 210 52 l 1,31,32
 248 49 248 49 277 49 c 0,33,34
 338 49 338 49 392 66 c 1,35,-1
 412 79 l 1,36,-1
 422 83 l 1,37,-1
 455 109 l 1,38,39
 494 154 494 154 508 198 c 0,40,41
 519 234 519 234 519 267 c 0,42,43
 519 295 519 295 511 327 c 1,44,-1
 495 367 l 1,45,46
 430 459 430 459 323 459 c 0,47,48
 297 459 297 459 270 453 c 1,49,50
 341 549 341 549 472 737 c 1,51,-1
 389 741 l 2,52,53
 354 742 354 742 329 742 c 0,54,55
 194 742 194 742 101 684 c 1,56,57
 101 702 101 702 113.5 731.5 c 128,-1,58
 126 761 126 761 128 774 c 1,59,60
 154 771 154 771 283 771 c 2,61,-1
 436 771 l 1,62,-1
 511 767 l 1,63,-1
 571 771 l 1,64,-1
 591 767 l 1,65,66
 492 661 492 661 383 489 c 1,67,68
 469 470 469 470 518 433 c 2,69,-1
 557 404 l 1,70,-1
 584 367 l 1,71,-1
 594 347 l 1,72,-1
 604 294 l 1,0,1
EndSplineSet
Validated: 1
EndChar
StartChar: four
Encoding: 52 52 13
Width: 762
Flags: W
LayerCount: 2
Fore
SplineSet
735 373 m 1,0,-1
 732 278 l 1,1,-1
 714 268 l 1,2,-1
 714 274 l 2,3,4
 713 282 713 282 705.5 287.5 c 128,-1,5
 698 293 698 293 692 297 c 2,6,-1
 546 304 l 1,7,8
 547 244 547 244 547 184 c 0,9,10
 548 113 548 113 562 62 c 1,11,-1
 586 36 l 1,12,-1
 586 23 l 1,13,14
 546 28 546 28 510 28 c 256,15,16
 474 28 474 28 434 23 c 1,17,-1
 424 23 l 1,18,-1
 431 36 l 1,19,-1
 444 36 l 1,20,-1
 454 46 l 1,21,22
 470 68 470 68 474 101 c 0,23,24
 480 156 480 156 481 159 c 2,25,-1
 483 288 l 1,26,-1
 477 304 l 1,27,-1
 107 311 l 1,28,-1
 34 307 l 1,29,-1
 27 311 l 1,30,31
 58 347 58 347 119 400 c 0,32,33
 204 475 204 475 222 493 c 1,34,-1
 236 513 l 1,35,-1
 378 648 l 1,36,-1
 533 784 l 1,37,-1
 536 784 l 1,38,-1
 540 582 l 1,39,-1
 546 543 l 1,40,-1
 546 459 l 1,41,-1
 543 420 l 1,42,-1
 543 347 l 1,43,-1
 549 337 l 1,44,45
 637 331 637 331 695 351 c 0,46,47
 701 353 701 353 702 353 c 2,48,-1
 718 380 l 1,49,-1
 735 373 l 1,0,-1
481 333 m 1,50,-1
 477 529 l 2,51,52
 478 537 478 537 471 671 c 1,53,-1
 457 671 l 1,54,-1
 295 516 l 1,55,-1
 153 387 l 1,56,-1
 140 367 l 1,57,-1
 127 344 l 1,58,-1
 173 341 l 1,59,-1
 192 341 l 1,60,-1
 289 333 l 1,61,-1
 305 337 l 1,62,-1
 454 333 l 1,63,-1
 461 331 l 1,64,-1
 481 333 l 1,50,-1
EndSplineSet
Validated: 33
EndChar
StartChar: five
Encoding: 53 53 14
Width: 591
Flags: W
HStem: 20 21G<153 238> 470 36<181.552 353.66> 730 31<238 472.556>
VStem: 47 13<135 152> 474 73<174.023 324.2>
LayerCount: 2
Fore
SplineSet
540 360 m 1,0,1
 547 322 547 322 547 286 c 0,2,3
 547 196 547 196 496 119 c 1,4,-1
 444 73 l 1,5,-1
 427 59 l 1,6,7
 403 45 403 45 331 23 c 1,8,-1
 242 16 l 1,9,-1
 238 23 l 1,10,-1
 232 20 l 1,11,-1
 153 26 l 1,12,-1
 50 66 l 1,13,14
 44 116 44 116 44 135 c 2,15,-1
 47 159 l 1,16,-1
 60 152 l 1,17,-1
 66 132 l 1,18,-1
 83 109 l 1,19,20
 167 50 167 50 249 50 c 0,21,22
 304 50 304 50 367 83 c 1,23,-1
 391 99 l 1,24,-1
 427 132 l 2,25,26
 447 150 447 150 458 189 c 0,27,28
 466 222 466 222 474 254 c 1,29,-1
 474 278 l 1,30,-1
 464 344 l 2,31,32
 457 369 457 369 414 420 c 1,33,34
 350 470 350 470 251 470 c 0,35,36
 241 470 241 470 93 456 c 1,37,38
 100 488 100 488 130 603 c 0,39,40
 154 692 154 692 159 747 c 1,41,-1
 169 764 l 1,42,-1
 490 761 l 1,43,-1
 529 771 l 1,44,-1
 523 744 l 1,45,-1
 503 698 l 1,46,-1
 474 724 l 1,47,48
 428 730 428 730 356 730 c 0,49,50
 256 730 256 730 238 731 c 1,51,-1
 179 513 l 1,52,-1
 235 506 l 1,53,-1
 252 506 l 2,54,55
 427 506 427 506 523 390 c 1,56,-1
 540 360 l 1,0,1
EndSplineSet
Validated: 1
EndChar
StartChar: six
Encoding: 54 54 15
Width: 631
Flags: W
HStem: 3 29<258.662 302 315 396.281> 436 34<322 449.694> 754 23<380.482 457>
VStem: 527 67<169.918 352.734>
LayerCount: 2
Fore
SplineSet
586 344 m 2,0,1
 594 304 594 304 594 271 c 0,2,3
 594 176 594 176 523 93 c 1,4,-1
 510 69 l 1,5,-1
 474 46 l 1,6,-1
 454 39 l 1,7,-1
 404 16 l 2,8,9
 386 8 386 8 360 6 c 0,10,11
 338 4 338 4 315 3 c 1,12,-1
 308 10 l 1,13,-1
 302 6 l 1,14,15
 239 6 239 6 186 42 c 2,16,-1
 133 79 l 1,17,-1
 80 135 l 1,18,-1
 60 172 l 1,19,-1
 57 188 l 1,20,21
 37 243 37 243 37 308 c 0,22,23
 37 370 37 370 57 459 c 1,24,25
 87 545 87 545 150 622 c 0,26,27
 222 710 222 710 298 737 c 2,28,-1
 318 744 l 1,29,-1
 335 754 l 1,30,-1
 352 757 l 1,31,-1
 361 764 l 1,32,33
 426 777 426 777 457 777 c 1,34,-1
 477 767 l 1,35,-1
 470 754 l 1,36,37
 370 759 370 759 286 691 c 1,38,39
 241 663 241 663 203 608 c 0,40,41
 154 538 154 538 135 447 c 0,42,43
 128 413 128 413 116 288 c 1,44,-1
 133 195 l 1,45,-1
 143 172 l 1,46,-1
 150 152 l 1,47,-1
 163 125 l 1,48,49
 229 32 229 32 336 32 c 0,50,51
 347 32 347 32 358 33 c 2,52,-1
 407 50 l 1,53,-1
 424 62 l 1,54,-1
 434 66 l 1,55,-1
 447 83 l 1,56,57
 491 122 491 122 509 174 c 0,58,59
 520 204 520 204 527 268 c 1,60,61
 527 317 527 317 499 364 c 0,62,63
 468 418 468 418 417 436 c 1,64,-1
 322 436 l 1,65,-1
 305 430 l 2,66,67
 275 417 275 417 259 390 c 1,68,-1
 249 387 l 1,69,-1
 246 406 l 1,70,71
 282 448 282 448 322 459 c 0,72,73
 359 470 359 470 395 470 c 0,74,75
 503 470 503 470 573 380 c 1,76,-1
 583 360 l 1,77,-1
 586 344 l 2,0,1
EndSplineSet
Validated: 33
EndChar
StartChar: seven
Encoding: 55 55 16
Width: 574
Flags: W
LayerCount: 2
Fore
SplineSet
556 741 m 1,0,1
 518 688 518 688 465 594 c 0,2,3
 408 493 408 493 378 450 c 1,4,-1
 351 393 l 1,5,6
 328 363 328 363 303 311 c 0,7,8
 275 254 275 254 259 231 c 2,9,-1
 236 188 l 1,10,-1
 199 132 l 1,11,-1
 127 3 l 1,12,-1
 54 6 l 1,13,-1
 34 0 l 1,14,-1
 28 3 l 1,15,16
 107 120 107 120 237 349 c 0,17,18
 370 584 370 584 444 694 c 1,19,-1
 289 701 l 1,20,-1
 223 701 l 2,21,22
 146 701 146 701 136 700 c 0,23,24
 89 696 89 696 50 674 c 1,25,-1
 34 654 l 1,26,-1
 18 654 l 1,27,28
 29 687 29 687 50 754 c 1,29,-1
 176 741 l 1,30,-1
 242 741 l 1,31,-1
 272 744 l 1,32,-1
 556 741 l 1,0,1
EndSplineSet
Validated: 1
EndChar
StartChar: eight
Encoding: 56 56 17
Width: 552
Flags: W
LayerCount: 2
Fore
SplineSet
520 274 m 2,0,1
 531 248 531 248 531 220 c 0,2,3
 531 138 531 138 442 58 c 1,4,-1
 435 55 l 1,5,-1
 419 39 l 1,6,-1
 380 19 l 1,7,-1
 314 7 l 1,8,-1
 229 0 l 1,9,-1
 223 3 l 1,10,-1
 142 19 l 1,11,-1
 122 33 l 1,12,-1
 60 68 l 1,13,-1
 34 101 l 1,14,-1
 24 121 l 1,15,16
 15 156 15 156 21 199 c 1,17,18
 36 240 36 240 45 257 c 0,19,20
 60 286 60 286 83 306 c 2,21,-1
 122 343 l 1,22,-1
 177 385 l 1,23,-1
 190 388 l 1,24,-1
 207 404 l 1,25,26
 120 438 120 438 60 502 c 1,27,28
 36 537 36 537 36 574 c 0,29,30
 36 619 36 619 79 688 c 1,31,-1
 109 718 l 1,32,-1
 128 730 l 2,33,34
 189 769 189 769 254 769 c 0,35,36
 331 769 331 769 425 714 c 1,37,-1
 458 685 l 1,38,-1
 471 662 l 1,39,-1
 481 623 l 1,40,41
 485 574 485 574 433 521 c 0,42,43
 390 477 390 477 331 450 c 2,44,-1
 301 437 l 1,45,46
 355 413 355 413 408 388 c 0,47,48
 469 356 469 356 507 310 c 1,49,-1
 513 290 l 1,50,-1
 520 274 l 2,0,1
386 688 m 1,51,52
 335 738 335 738 255 743 c 0,53,54
 213 746 213 746 170 720 c 0,55,56
 123 691 123 691 105 642 c 0,57,58
 99 626 99 626 99 608 c 0,59,60
 99 577 99 577 118 542 c 1,61,62
 177 473 177 473 253 456 c 1,63,-1
 265 447 l 1,64,-1
 272 444 l 1,65,-1
 282 444 l 1,66,-1
 301 460 l 1,67,-1
 343 483 l 1,68,-1
 380 528 l 1,69,70
 410 577 410 577 410 617 c 0,71,72
 410 654 410 654 386 688 c 1,51,52
454 248 m 2,73,-1
 448 267 l 1,74,75
 403 324 403 324 327 355 c 1,76,-1
 304 369 l 1,77,-1
 239 394 l 1,78,-1
 210 378 l 1,79,-1
 187 362 l 1,80,81
 150 330 150 330 128 306 c 0,82,83
 86 259 86 259 86 179 c 0,84,85
 86 153 86 153 96 134 c 2,86,-1
 112 101 l 1,87,88
 147 58 147 58 195 40 c 0,89,90
 223 29 223 29 278 23 c 1,91,-1
 285 19 l 1,92,-1
 294 26 l 1,93,-1
 363 39 l 1,94,-1
 380 52 l 1,95,-1
 392 55 l 1,96,-1
 431 91 l 1,97,98
 466 147 466 147 466 194 c 0,99,100
 466 222 466 222 454 248 c 2,73,-1
EndSplineSet
Validated: 33
EndChar
StartChar: nine
Encoding: 57 57 18
Width: 577
Flags: W
LayerCount: 2
Fore
SplineSet
566 473 m 1,0,1
 566 324 566 324 507 235 c 0,2,3
 477 191 477 191 472 183 c 0,4,5
 450 154 450 154 425 130 c 1,6,-1
 406 104 l 1,7,-1
 392 98 l 1,8,-1
 380 85 l 1,9,-1
 350 65 l 1,10,-1
 307 42 l 1,11,-1
 282 36 l 2,12,13
 254 27 254 27 207 24 c 0,14,15
 150 20 150 20 132 17 c 1,16,-1
 122 19 l 1,17,-1
 44 33 l 1,18,-1
 44 39 l 1,19,-1
 63 42 l 1,20,-1
 83 33 l 1,21,-1
 138 29 l 1,22,-1
 187 36 l 1,23,-1
 246 52 l 1,24,-1
 262 62 l 1,25,-1
 282 65 l 1,26,-1
 298 78 l 1,27,-1
 314 85 l 1,28,-1
 334 101 l 1,29,-1
 376 140 l 1,30,-1
 389 160 l 2,31,32
 480 296 480 296 480 408 c 1,33,-1
 484 431 l 1,34,-1
 477 515 l 2,35,36
 472 581 472 581 428 639 c 1,37,-1
 412 656 l 1,38,-1
 396 672 l 1,39,-1
 363 701 l 1,40,-1
 334 714 l 1,41,42
 277 725 277 725 250 725 c 0,43,44
 218 725 218 725 190 714 c 2,45,-1
 174 708 l 1,46,47
 81 647 81 647 81 534 c 0,48,49
 81 511 81 511 85 486 c 0,50,51
 95 454 95 454 103 441 c 0,52,53
 115 418 115 418 138 401 c 2,54,-1
 171 378 l 2,55,56
 183 373 183 373 204.5 370.5 c 128,-1,57
 226 368 226 368 236 365 c 1,58,-1
 301 375 l 1,59,-1
 334 391 l 1,60,-1
 353 411 l 1,61,-1
 376 434 l 1,62,-1
 376 440 l 1,63,-1
 382 425 l 1,64,65
 364 375 364 375 327 359 c 0,66,67
 272 334 272 334 220 334 c 0,68,69
 149 334 149 334 79 378 c 2,70,-1
 54 394 l 1,71,-1
 34 425 l 1,72,-1
 24 447 l 1,73,74
 11 493 11 493 11 532 c 0,75,76
 11 632 11 632 99 705 c 1,77,-1
 112 711 l 1,78,-1
 128 724 l 1,79,80
 152 738 152 738 181 743 c 1,81,82
 199 753 199 753 226 753 c 0,83,84
 408 759 408 759 493 646 c 2,85,-1
 513 620 l 2,86,87
 525 600 525 600 539 561 c 2,88,-1
 552 515 l 1,89,-1
 566 473 l 1,0,1
EndSplineSet
Validated: 33
EndChar
StartChar: colon
Encoding: 58 58 19
Width: 129
Flags: W
LayerCount: 2
Fore
SplineSet
117 96 m 1,0,1
 91 57 91 57 62 32 c 1,2,3
 33 53 33 53 13 93 c 1,4,5
 56 124 56 124 73 159 c 1,6,7
 85 120 85 120 117 96 c 1,0,1
121 381 m 1,8,9
 95 342 95 342 66 317 c 1,10,11
 37 338 37 338 17 378 c 1,12,13
 60 409 60 409 77 444 c 1,14,15
 90 405 90 405 121 381 c 1,8,9
EndSplineSet
Validated: 1
EndChar
StartChar: semicolon
Encoding: 59 59 20
Width: 129
Flags: W
VStem: 15 108
LayerCount: 2
Fore
SplineSet
119 84 m 1,0,1
 113 75 113 75 89 16 c 0,2,3
 67 -37 67 -37 58 -45 c 1,4,5
 72 -9 72 -9 72 10 c 0,6,7
 72 24 72 24 66 32 c 0,8,9
 37 61 37 61 15 81 c 1,10,11
 54 109 54 109 76 155 c 1,12,13
 93 104 93 104 119 84 c 1,0,1
123 373 m 1,14,15
 97 334 97 334 68 309 c 1,16,17
 39 330 39 330 18 371 c 1,18,19
 63 403 63 403 79 436 c 1,20,21
 91 397 91 397 123 373 c 1,14,15
EndSplineSet
Validated: 1
EndChar
StartChar: less
Encoding: 60 60 89
Width: 376
Flags: W
LayerCount: 2
Fore
SplineSet
14.24609375 357.569335938 m 1,0,-1
 44 373 l 1,1,-1
 230 553 l 1,2,-1
 279 620 l 1,3,-1
 285 638 l 1,4,-1
 285 650 l 1,5,-1
 285 658 l 1,6,-1
 293 662 l 1,7,-1
 298 662 l 1,8,9
 310 644 l 258,10,11
 350 601 l 1,12,-1
 344 582 l 1,13,14
 332 588 l 2,15,-1
 318 594 l 1,16,17
 304 580 304 580 291 566 c 0,18,19
 88 356 l 1,20,-1
 84 357 l 1,21,-1
 83 353 l 1,22,-1
 196.655273438 243.319335938 l 1,23,-1
 273.215820312 182.967773438 l 1,24,-1
 304.227539062 168.494140625 l 1,25,-1
 318 167 l 1,26,-1
 332.215820312 172.967773438 l 1,27,-1
 342 178 l 1,28,-1
 335 157 l 1,29,30
 318 146 l 2,31,32
 284 123 l 1,33,-1
 269 93 l 1,34,35
 267 93 267 93 266 104 c 2,36,-1
 264 136 l 1,37,38
 170 222 l 0,39,40
 41.607421875 347.751953125 l 1,41,-1
 14.24609375 357.569335938 l 1,0,-1
EndSplineSet
EndChar
StartChar: B
Encoding: 66 66 22
Width: 547
Flags: W
HStem: 30 24<166.271 228 239.494 335.006> 771 21<138.994 284.007>
VStem: 71 60<81.8486 423 445.875 599.527> 384 66<588 673> 460 74<178.916 339.468>
LayerCount: 2
Fore
SplineSet
504 353 m 1,0,1
 534 310 534 310 534 262 c 0,2,3
 534 199 534 199 480 124 c 0,4,5
 423 45 423 45 326 34 c 2,6,-1
 292 30 l 1,7,-1
 268 30 l 2,8,9
 243 30 243 30 191.5 35 c 128,-1,10
 140 40 140 40 115 40 c 0,11,12
 65 40 65 40 27 26 c 1,13,-1
 16 30 l 1,14,-1
 13 47 l 1,15,-1
 36 57 l 1,16,17
 53 78 53 78 59 111 c 0,18,19
 63 140 63 140 67 168 c 2,20,-1
 71 296 l 1,21,-1
 71 377 l 2,22,23
 71 580 71 580 47 716 c 1,24,-1
 33 747 l 1,25,-1
 20 763 l 1,26,-1
 20 783 l 1,27,28
 54 781 54 781 118 786 c 0,29,30
 193 792 193 792 222 792 c 0,31,32
 382 792 382 792 447 673 c 1,33,-1
 450 652 l 1,34,-1
 450 626 l 1,35,-1
 447 588 l 1,36,37
 425 533 425 533 390 498 c 1,38,-1
 376 481 l 1,39,-1
 359 471 l 1,40,-1
 319 447 l 1,41,42
 430 441 430 441 504 353 c 1,0,1
370 693 m 1,43,-1
 363 706 l 1,44,45
 309 771 309 771 222 771 c 0,46,47
 196 771 196 771 138 763 c 1,48,-1
 134 757 l 1,49,-1
 131 494 l 1,50,-1
 127 447 l 1,51,-1
 147 441 l 1,52,-1
 158 437 l 1,53,54
 194 440 194 440 231 443 c 0,55,56
 273 447 273 447 306 464 c 1,57,58
 384 517 384 517 384 614 c 0,59,60
 384 654 384 654 370 693 c 1,43,-1
457 292 m 0,61,62
 449 350 449 350 392 391 c 0,63,64
 339 429 339 429 282 427 c 2,65,-1
 127 423 l 1,66,-1
 131 218 l 2,67,68
 132 139 132 139 144 80 c 1,69,70
 174 54 174 54 228 54 c 1,71,-1
 238 50 l 1,72,73
 286 54 286 54 309 59 c 0,74,75
 350 67 350 67 383 87 c 0,76,77
 460 143 460 143 460 249 c 0,78,79
 460 270 460 270 457 292 c 0,61,62
EndSplineSet
Validated: 33
EndChar
StartChar: C
Encoding: 67 67 23
Width: 706
Flags: W
HStem: 20 30<333.682 434> 763 23<324.262 517>
VStem: 16 86<257.688 534.337>
LayerCount: 2
Fore
SplineSet
690 147 m 1,0,-1
 666 60 l 1,1,2
 653 53 653 53 622 44 c 0,3,4
 570 24 570 24 434 17 c 1,5,-1
 424 20 l 1,6,7
 190 27 190 27 71 198 c 2,8,-1
 54 222 l 1,9,-1
 34 266 l 1,10,-1
 30 282 l 2,11,12
 16 344 16 344 16 402 c 0,13,14
 16 597 16 597 175 723 c 1,15,-1
 189 737 l 1,16,17
 284 786 284 786 412 786 c 0,18,19
 457 786 457 786 540 779 c 0,20,21
 630 771 630 771 670 770 c 1,22,-1
 686 679 l 1,23,-1
 683 662 l 1,24,-1
 663 676 l 1,25,26
 619 728 619 728 552 746 c 0,27,28
 541 749 541 749 434 763 c 1,29,-1
 404 763 l 2,30,31
 334 763 334 763 266 730 c 1,32,-1
 229 706 l 1,33,34
 120 613 120 613 105 457 c 0,35,36
 102 427 102 427 102 399 c 0,37,38
 102 298 102 298 141 215 c 1,39,-1
 149 195 l 1,40,41
 254 54 254 54 427 50 c 0,42,43
 503 49 503 49 551 61 c 0,44,45
 614 78 614 78 670 124 c 1,46,-1
 673 131 l 1,47,-1
 690 147 l 1,0,-1
EndSplineSet
Validated: 33
EndChar
StartChar: D
Encoding: 68 68 24
Width: 802
Flags: W
LayerCount: 2
Fore
SplineSet
362.5 428 m 0,0,1
 364 453 364 453 381 470.5 c 128,-1,2
 398 488 398 488 423 488 c 128,-1,3
 448 488 448 488 466 470.5 c 128,-1,4
 484 453 484 453 482.764648438 428.334960938 c 0,5,6
 482 403 482 403 465 385.5 c 128,-1,7
 448 368 448 368 423 368 c 128,-1,8
 398 368 398 368 379.530273438 385.998046875 c 128,-1,9
 361 404 361 404 362.5 428 c 0,0,1
788 407 m 1,10,11
 772 255 772 255 656 124 c 1,12,-1
 643 117 l 1,13,-1
 629 97 l 1,14,-1
 595 77 l 1,15,-1
 575 64 l 2,16,17
 560 55 560 55 528 44 c 0,18,19
 482 23 482 23 428 19 c 0,20,21
 406 17 406 17 330 17 c 2,22,-1
 287 17 l 1,23,-1
 280 20 l 1,24,25
 254 20 254 20 203.5 25 c 128,-1,26
 153 30 153 30 127 30 c 256,27,28
 101 30 101 30 78 26 c 1,29,-1
 55 30 l 1,30,31
 55 35 55 35 61 40 c 2,32,-1
 88 60 l 1,33,34
 103 93 103 93 103 150 c 0,35,36
 103 219 103 219 108 242 c 1,37,-1
 108 501 l 1,38,-1
 98 669 l 1,39,-1
 85 730 l 1,40,-1
 68 753 l 1,41,-1
 55 767 l 1,42,-1
 14 770 l 1,43,-1
 17 780 l 1,44,-1
 25 783 l 1,45,46
 58 774 58 774 158 774 c 2,47,-1
 178 774 l 1,48,49
 271 783 271 783 360 783 c 0,50,51
 479 783 479 783 545 762 c 0,52,53
 648 729 648 729 720 632 c 1,54,55
 752 576 752 576 760 548 c 2,56,-1
 767 524 l 1,57,-1
 770 521 l 1,58,-1
 781 467 l 1,59,-1
 781 447 l 1,60,-1
 788 407 l 1,10,11
683 538 m 0,61,62
 625 763 625 763 332 763 c 0,63,64
 263 763 263 763 188 750 c 1,65,66
 176 705 176 705 174 646 c 1,67,68
 175 701 175 701 175 542 c 2,69,-1
 175 514 l 1,70,-1
 168 434 l 1,71,-1
 172 232 l 2,72,73
 172 169 172 169 173 156 c 0,74,75
 177 112 177 112 192 77 c 1,76,77
 214 58 214 58 242 52 c 0,78,79
 266 49 266 49 290 47 c 1,80,-1
 296 44 l 1,81,-1
 316 47 l 1,82,83
 446 42 446 42 545 91 c 1,84,85
 701 217 701 217 701 405 c 0,86,87
 701 468 701 468 683 538 c 0,61,62
EndSplineSet
Validated: 524325
EndChar
StartChar: E
Encoding: 69 69 25
Width: 559
Flags: W
HStem: 17 23<22 51.5469 194.908 361.429> 420 23<164.542 401.5> 750 27<303.789 443.812> 760 17<16 32>
VStem: 88 76<449.692 588> 88 65<154.455 417 500.818 667.5> 446 27<454 461> 469 27<727 732.188>
LayerCount: 2
Fore
SplineSet
547 114 m 1,0,-1
 513 23 l 1,1,-1
 513 10 l 1,2,-1
 409 10 l 1,3,-1
 298 17 l 2,4,5
 153 26 153 26 42 17 c 1,6,-1
 22 20 l 1,7,-1
 22 34 l 1,8,-1
 36 34 l 1,9,10
 64 58 64 58 72 101 c 0,11,12
 77 136 77 136 83 171 c 0,13,14
 87 224 87 224 88 288 c 0,15,16
 89 331 89 331 88 403 c 0,17,18
 86 487 86 487 86 518 c 2,19,-1
 86 554 l 2,20,21
 86 673 86 673 49 743 c 1,22,-1
 32 760 l 1,23,-1
 12 760 l 1,24,-1
 16 777 l 1,25,26
 286 771 286 771 483 783 c 1,27,-1
 496 727 l 1,28,-1
 486 706 l 1,29,-1
 469 727 l 1,30,31
 421 749 421 749 354 751 c 0,32,33
 296 752 296 752 237 753 c 2,34,-1
 170 750 l 1,35,-1
 167 747 l 1,36,-1
 157 588 l 1,37,-1
 164 451 l 1,38,39
 181 450 181 450 244 446 c 0,40,41
 293 443 293 443 324 443 c 0,42,43
 384 443 384 443 433 454 c 1,44,-1
 439 457 l 2,45,46
 446 460 446 460 446 461 c 2,47,-1
 460 471 l 1,48,-1
 473 464 l 1,49,-1
 469 441 l 1,50,-1
 473 397 l 1,51,-1
 469 390 l 1,52,-1
 433 410 l 1,53,-1
 328 420 l 1,54,-1
 194 420 l 1,55,-1
 160 417 l 1,56,-1
 153 387 l 1,57,-1
 153 255 l 1,58,-1
 164 97 l 1,59,-1
 167 80 l 1,60,-1
 194 50 l 1,61,62
 223 40 223 40 261 39 c 1,63,64
 209 40 209 40 328 40 c 2,65,-1
 359 40 l 1,66,-1
 456 54 l 1,67,-1
 483 64 l 1,68,-1
 504 80 l 1,69,-1
 513 80 l 1,70,-1
 544 114 l 1,71,-1
 547 114 l 1,0,-1
EndSplineSet
Validated: 37
EndChar
StartChar: F
Encoding: 70 70 26
Width: 500
Flags: W
LayerCount: 2
Fore
SplineSet
482 709 m 1,0,-1
 479 686 l 1,1,-1
 472 686 l 1,2,3
 412 747 412 747 305 747 c 0,4,5
 288 747 288 747 235 744 c 0,6,7
 191 742 191 742 166 743 c 1,8,-1
 152 730 l 1,9,-1
 149 706 l 1,10,-1
 146 554 l 1,11,-1
 149 451 l 1,12,-1
 301 444 l 1,13,-1
 384 451 l 1,14,-1
 415 471 l 1,15,-1
 418 387 l 1,16,-1
 398 393 l 1,17,18
 383 406 383 406 363 410 c 128,-1,19
 343 414 343 414 324 417 c 2,20,-1
 240 420 l 1,21,-1
 213 420 l 1,22,-1
 152 417 l 1,23,-1
 146 269 l 1,24,-1
 146 124 l 1,25,-1
 152 57 l 1,26,-1
 159 44 l 1,27,-1
 163 40 l 1,28,-1
 196 17 l 1,29,-1
 179 6 l 1,30,-1
 172 10 l 1,31,32
 138 15 138 15 103 15 c 0,33,34
 69 15 69 15 32 10 c 1,35,-1
 25 26 l 1,36,-1
 45 30 l 1,37,-1
 68 60 l 1,38,-1
 79 135 l 1,39,-1
 76 242 l 1,40,-1
 76 353 l 1,41,-1
 79 370 l 1,42,-1
 79 531 l 2,43,44
 79 666 79 666 48 737 c 1,45,-1
 18 763 l 1,46,-1
 18 777 l 1,47,48
 181 766 181 766 472 774 c 1,49,-1
 482 747 l 1,50,-1
 482 709 l 1,0,-1
EndSplineSet
Validated: 33
EndChar
StartChar: G
Encoding: 71 71 27
Width: 733
Flags: W
LayerCount: 2
Fore
SplineSet
721 356 m 1,0,-1
 714 340 l 1,1,-1
 688 333 l 1,2,3
 674 311 674 311 674 292 c 2,4,-1
 674 262 l 1,5,-1
 677 195 l 1,6,-1
 677 165 l 1,7,-1
 674 87 l 1,8,-1
 674 37 l 1,9,-1
 630 30 l 1,10,-1
 627 26 l 1,11,-1
 600 23 l 1,12,-1
 597 20 l 1,13,-1
 573 10 l 1,14,15
 554 10 554 10 517.5 4.5 c 128,-1,16
 481 -1 481 -1 462 0 c 2,17,-1
 395 3 l 1,18,-1
 388 0 l 1,19,20
 194 7 194 7 75 165 c 1,21,-1
 35 242 l 1,22,23
 12 305 12 305 12 374 c 0,24,25
 12 474 12 474 60 564 c 0,26,27
 111 660 111 660 209 727 c 1,28,-1
 264 753 l 1,29,30
 326 774 326 774 449 780 c 1,31,-1
 489 774 l 2,32,33
 521 772 521 772 585 761.5 c 128,-1,34
 649 751 649 751 680 750 c 1,35,-1
 688 686 l 1,36,-1
 691 669 l 1,37,-1
 688 662 l 1,38,-1
 671 666 l 1,39,-1
 671 669 l 1,40,41
 573 746 573 746 434 746 c 0,42,43
 385 746 385 746 321 737 c 1,44,-1
 297 730 l 1,45,-1
 267 719 l 1,46,-1
 247 709 l 1,47,-1
 230 696 l 1,48,-1
 193 669 l 1,49,-1
 179 649 l 1,50,-1
 136 595 l 1,51,52
 119 558 119 558 109 484 c 2,53,-1
 102 437 l 1,54,-1
 109 262 l 1,55,-1
 116 238 l 1,56,-1
 122 222 l 1,57,-1
 146 175 l 2,58,59
 218 33 218 33 412 37 c 0,60,61
 512 39 512 39 600 64 c 1,62,-1
 604 299 l 1,63,-1
 597 319 l 1,64,-1
 593 322 l 1,65,-1
 580 340 l 1,66,-1
 546 350 l 1,67,-1
 647 353 l 1,68,-1
 664 350 l 1,69,-1
 721 356 l 1,0,-1
EndSplineSet
Validated: 33
EndChar
StartChar: I
Encoding: 73 73 29
Width: 227
Flags: W
LayerCount: 2
Fore
SplineSet
217 17 m 5,0,-1
 214 10 l 5,1,2
 181 10 181 10 108 17 c 5,3,-1
 85 17 l 5,4,-1
 24 6 l 5,5,-1
 17 10 l 5,6,-1
 14 20 l 5,7,-1
 34 20 l 5,8,-1
 47 30 l 5,9,-1
 71 51 l 5,10,11
 85 126 85 126 85 271 c 6,12,-1
 85 369 l 6,13,14
 85 501 85 501 82 547 c 4,15,16
 76 647 76 647 54 725 c 5,17,-1
 27 756 l 5,18,-1
 10 766 l 5,19,-1
 14 773 l 5,20,21
 122 768 122 768 207 776 c 5,22,-1
 207 759 l 5,23,-1
 203 759 l 5,24,-1
 173 732 l 5,25,26
 162 697 162 697 162 642 c 6,27,-1
 162 598 l 6,28,29
 161 556 161 556 156 529 c 5,30,-1
 156 488 l 5,31,-1
 159 403 l 5,32,-1
 156 376 l 5,33,-1
 166 64 l 5,34,-1
 173 64 l 5,35,-1
 173 51 l 5,36,-1
 176 44 l 5,37,-1
 200 24 l 5,38,-1
 217 17 l 5,0,-1
EndSplineSet
Validated: 33
EndChar
StartChar: J
Encoding: 74 74 30
Width: 499
Flags: W
LayerCount: 2
Fore
SplineSet
473 780 m 1,0,-1
 463 767 l 1,1,-1
 446 746 l 1,2,3
 432 697 432 697 431 621 c 0,4,5
 429 519 429 519 426 495 c 2,6,-1
 426 363 l 1,7,-1
 419 180 l 1,8,9
 405 124 405 124 361 81 c 0,10,11
 299 20 299 20 168 20 c 1,12,-1
 158 24 l 1,13,14
 107 29 107 29 26 58 c 1,15,-1
 26 163 l 1,16,-1
 36 160 l 1,17,-1
 43 140 l 1,18,19
 64 95 64 95 110 69 c 0,20,21
 150 46 150 46 195 46 c 0,22,23
 206 46 206 46 215 48 c 2,24,-1
 236 51 l 1,25,26
 292 77 292 77 320 127 c 0,27,28
 343 166 343 166 351 226 c 0,29,30
 356 274 356 274 361 322 c 1,31,-1
 358 373 l 2,32,33
 356 464 356 464 354 554 c 0,34,35
 350 659 350 659 320 732 c 1,36,-1
 287 767 l 1,37,-1
 273 773 l 1,38,-1
 283 787 l 1,39,-1
 358 777 l 1,40,-1
 449 784 l 1,41,-1
 473 780 l 1,0,-1
EndSplineSet
Validated: 1
EndChar
StartChar: O
Encoding: 79 79 35
Width: 863
Flags: W
LayerCount: 2
Fore
SplineSet
372.5 430 m 0,0,1
 374 455 374 455 391 472.5 c 128,-1,2
 408 490 408 490 433 490 c 128,-1,3
 458 490 458 490 476 472.5 c 128,-1,4
 494 455 494 455 492.764648438 430.334960938 c 0,5,6
 492 405 492 405 475 387.5 c 128,-1,7
 458 370 458 370 433 370 c 128,-1,8
 408 370 408 370 389.530273438 387.998046875 c 128,-1,9
 371 406 371 406 372.5 430 c 0,0,1
833 531 m 0,10,11
 850 471 850 471 850 415 c 0,12,13
 850 247 850 247 705 110 c 1,14,-1
 674 86 l 1,15,-1
 629 62 l 1,16,-1
 612 48 l 1,17,18
 516 7 516 7 402 7 c 1,19,-1
 391 10 l 1,20,21
 269 10 269 10 164 100 c 2,22,-1
 136 124 l 1,23,-1
 88 182 l 1,24,-1
 74 203 l 1,25,-1
 63 221 l 1,26,-1
 36 279 l 1,27,-1
 22 324 l 2,28,29
 18.0117878193 336.819253438 18.0117878193 336.819253438 15 383 c 0,30,31
 14 397 14 397 13 412 c 0,32,33
 13 515 13 515 84 620 c 0,34,35
 159 732 159 732 264 769 c 2,36,-1
 284 776 l 1,37,-1
 305 783 l 2,38,39
 371 805 371 805 446 805 c 0,40,41
 463 805 463 805 481 803 c 0,42,43
 584 796 584 796 690 718 c 0,44,45
 804 634 804 634 833 531 c 0,10,11
  Spiro
    833 531 o
    845.75 472 o
    850 415 o
    813.75 254.75 o
    705 110 v
    674 86 v
    629 62 v
    612 48 v
    511.5 17.25 o
    402 7 v
    391 10 v
    273.25 32.5 o
    164 100 [
    136 124 v
    88 182 v
    74 203 v
    63 221 v
    36 279 v
    22 324 ]
    18.2559 345.16 o
    15 383 o
    14 397.25 o
    13 412 o
    30.75 515.5 o
    84 620 o
    166.5 713.25 o
    264 769 [
    284 776 v
    305 783 ]
    373.25 799.5 o
    446 805 o
    463.25 804.5 o
    481 803 o
    584.75 778.25 o
    690 718 o
    782.75 629.25 o
    0 0 z
  EndSpiro
771 410 m 0,46,47
 771 478 771 478 750 538 c 0,48,49
 714 643 714 643 647 707 c 1,50,51
 550 782 550 782 437 782 c 0,52,53
 384 782 384 782 319 766 c 1,54,-1
 298 755 l 1,55,-1
 277 748 l 1,56,57
 185 700 185 700 133 576 c 1,58,59
 138 573 138 573 134 569 c 0,60,61
 130 566 130 566 122 566 c 1,62,-1
 95 428 l 1,63,-1
 98 383 l 1,64,-1
 116 273 l 1,65,-1
 126 242 l 1,66,-1
 139 213 l 1,67,-1
 143 196 l 1,68,-1
 160 165 l 1,69,-1
 201 120 l 1,70,71
 208 114 208 114 233 97 c 2,72,-1
 264 76 l 1,73,-1
 305 55 l 1,74,-1
 370 34 l 1,75,-1
 395 34 l 1,76,-1
 402 31 l 1,77,-1
 450 34 l 1,78,-1
 474 34 l 1,79,80
 504 41 504 41 534 48 c 0,81,82
 573.753623188 57.1739130435 573.753623188 57.1739130435 591 69 c 2,83,-1
 626 93 l 2,84,85
 771 192.428571429 771 192.428571429 771 410 c 0,46,47
  Spiro
    771 410 o
    765.75 476 o
    750 538 o
    706.25 632.75 o
    647 707 v
    546 763.25 o
    437 782 o
    381 778 o
    319 766 v
    298 755 v
    277 748 v
    195 681 o
    133 576 v
    135.75 572.75 o
    134 569 o
    129 566.75 o
    122 566 v
    95 428 v
    98 383 v
    116 273 v
    126 242 v
    139 213 v
    143 196 v
    160 165 v
    201 120 v
    212.5 111.25 o
    233 97 [
    264 76 v
    305 55 v
    370 34 v
    395 34 v
    402 31 v
    450 34 v
    474 34 v
    534 48 [
    568.127 57.837 o
    591 69 [
    626 93 ]
    734.75 221.964 o
    0 0 z
  EndSpiro
EndSplineSet
Validated: 524321
EndChar
StartChar: P
Encoding: 80 80 36
Width: 585
Flags: W
HStem: 21 13<38 48 55.4207 62 192.625 207.935> 345 20<246.684 335> 761 26<186 367.722> 783 6<21 26.8923>
VStem: 100 62<113.5 610> 499 65<477.891 614>
LayerCount: 2
Fore
SplineSet
559 617 m 0,0,1
 564 593 564 593 564 570 c 0,2,3
 564 531 564 531 549 483 c 1,4,-1
 514 421 l 1,5,6
 425 345 425 345 325 345 c 0,7,8
 269 345 269 345 197 369 c 1,9,-1
 193 386 l 1,10,11
 203 384 203 384 248 373 c 0,12,13
 280 365 280 365 300 365 c 2,14,-1
 355 376 l 2,15,16
 415 387 415 387 459 448 c 0,17,18
 499 504 499 504 499 562 c 0,19,20
 499 575 499 575 497 586 c 2,21,-1
 480 662 l 1,22,23
 417 761 417 761 281 761 c 0,24,25
 264 761 264 761 232.5 759.5 c 128,-1,26
 201 758 201 758 186 758 c 1,27,-1
 180 755 l 1,28,-1
 166 645 l 1,29,-1
 162 600 l 1,30,-1
 162 162 l 1,31,-1
 176 65 l 1,32,-1
 183 51 l 2,33,34
 185 43 185 43 195 39.5 c 128,-1,35
 205 36 205 36 207 34 c 0,36,37
 211 27 211 27 203 21 c 1,38,39
 162 29 162 29 52 21 c 1,40,-1
 48 24 l 1,41,-1
 38 21 l 1,42,-1
 38 34 l 1,43,-1
 62 37 l 1,44,-1
 76 45 l 1,45,46
 92 71 92 71 95 108 c 0,47,48
 98 160 98 160 100 169 c 2,49,-1
 100 397 l 1,50,-1
 93 610 l 2,51,52
 93 693 93 693 66 745 c 0,53,54
 60 765 60 765 21 783 c 1,55,-1
 25 789 l 1,56,57
 76 783 76 783 176 783 c 0,58,59
 197 783 197 783 238 785 c 128,-1,60
 279 787 279 787 299 787 c 0,61,62
 435 787 435 787 521 700 c 1,63,64
 533 679 533 679 545 657 c 128,-1,65
 557 635 557 635 559 617 c 0,0,1
EndSplineSet
Validated: 33
EndChar
StartChar: Q
Encoding: 81 81 37
Width: 858
Flags: W
LayerCount: 2
Fore
SplineSet
362.5 422 m 0,0,1
 364 447 364 447 381 464.5 c 128,-1,2
 398 482 398 482 423 482 c 128,-1,3
 448 482 448 482 466 464.5 c 128,-1,4
 484 447 484 447 482.764648438 422.334960938 c 0,5,6
 482 397 482 397 465 379.5 c 128,-1,7
 448 362 448 362 423 362 c 128,-1,8
 398 362 398 362 379.530273438 379.998046875 c 128,-1,9
 361 398 361 398 362.5 422 c 0,0,1
1296 -169 m 1,10,-1
 1255 -180 l 1,11,-1
 1252 -180 l 1,12,13
 1219 -185 1219 -185 1185 -185 c 0,14,15
 1069 -185 1069 -185 904 -127 c 1,16,17
 763 -73 763 -73 621 -20 c 0,18,19
 456 38 456 38 340 38 c 0,20,21
 313 38 313 38 288 35 c 1,22,23
 193 73 193 73 133 141 c 2,24,-1
 78 203 l 1,25,26
 20 305 20 305 20 405 c 0,27,28
 20 482 20 482 54 562 c 1,29,-1
 57 586 l 1,30,31
 120 693 120 693 220 750 c 0,32,33
 313 802 313 802 419 802 c 0,34,35
 497 802 497 802 568 772 c 1,36,37
 650 748 650 748 727 677 c 0,38,39
 807 603 807 603 826 527 c 0,40,41
 841 472 841 472 841 419 c 0,42,43
 841 233 841 233 668 89 c 1,44,-1
 654 83 l 1,45,-1
 637 69 l 2,46,47
 621 58 621 58 589 44 c 2,48,-1
 581 41 l 1,49,-1
 575 37 l 1,50,51
 681 28 681 28 825 -35 c 0,52,53
 1029 -124 1029 -124 1066 -136 c 0,54,55
 1155 -165 1155 -165 1247 -165 c 0,56,57
 1269 -165 1269 -165 1289 -163 c 1,58,-1
 1296 -169 l 1,10,-1
761 393 m 1,59,60
 761 663 761 663 568 752 c 1,61,62
 485 779 485 779 417 779 c 0,63,64
 291 779 291 779 191 686 c 1,65,66
 136 617 136 617 118 529 c 0,67,68
 107 476 107 476 106 369 c 0,69,70
 104 267 104 267 171 158 c 1,71,72
 271 41 271 41 412 41 c 2,73,-1
 454 41 l 2,74,75
 477 43 477 43 502.5 45 c 128,-1,76
 528 47 528 47 547 55 c 2,77,-1
 585 69 l 1,78,-1
 602 83 l 1,79,-1
 620 89 l 1,80,-1
 661 127 l 2,81,82
 693 156 693 156 711 191 c 0,83,84
 714 197 714 197 740 258 c 1,85,-1
 761 393 l 1,59,60
EndSplineSet
Validated: 524321
EndChar
StartChar: T
Encoding: 84 84 40
Width: 573
Flags: W
LayerCount: 2
Fore
SplineSet
602 699 m 1,0,-1
 588 682 l 1,1,-1
 557 716 l 1,2,3
 513 728 513 728 447 729 c 0,4,5
 392 730 392 730 336 730 c 1,6,-1
 329 689 l 1,7,-1
 329 392 l 1,8,-1
 336 351 l 1,9,-1
 336 306 l 2,10,11
 336 168 336 168 350 58 c 1,12,-1
 360 41 l 1,13,-1
 388 20 l 1,14,-1
 212 9 l 1,15,-1
 205 13 l 1,16,-1
 202 27 l 1,17,-1
 222 30 l 1,18,-1
 226 30 l 1,19,20
 262 100 262 100 262 208 c 0,21,22
 262 222 262 222 261 267 c 0,23,24
 260 304 260 304 261 327 c 0,25,26
 264 353 264 353 264 444 c 2,27,-1
 264 499 l 1,28,-1
 257 696 l 1,29,-1
 253 730 l 1,30,-1
 157 737 l 1,31,-1
 133 737 l 1,32,-1
 16 716 l 1,33,-1
 12 713 l 1,34,-1
 -19 672 l 1,35,36
 -23 676 -23 676 -23 684 c 0,37,38
 -23 693 -23 693 -16 718 c 128,-1,39
 -9 743 -9 743 -9 754 c 1,40,-1
 2 772 l 1,41,-1
 64 772 l 1,42,-1
 433 765 l 1,43,-1
 536 768 l 1,44,-1
 588 768 l 1,45,-1
 592 754 l 1,46,-1
 602 699 l 1,0,-1
EndSplineSet
Validated: 33
EndChar
StartChar: U
Encoding: 85 85 41
Width: 832
Flags: W
HStem: 7 21G<799 811> 758 4<21 39> 762 3.5<23.9648 39> 763 20G<632 656> 763 20G<632 656>
VStem: 76 80<541 736.953> 673 76<504.182 687.4> 684 79<65 124> 684 65<146.542 238 279 504.182>
LayerCount: 2
Fore
SplineSet
811 21 m 1,0,-1
 804 7 l 1,1,2
 794 7 794 7 749 11 c 0,3,4
 716 14 716 14 694 10 c 1,5,-1
 673 21 l 1,6,-1
 684 86 l 1,7,-1
 684 124 l 1,8,-1
 649 93 l 1,9,-1
 590 51 l 1,10,-1
 573 37 l 1,11,-1
 545 31 l 1,12,-1
 525 24 l 2,13,14
 448 0 448 0 396 0 c 0,15,16
 373 0 373 0 352 4 c 1,17,-1
 345 10 l 1,18,-1
 339 4 l 1,19,-1
 259 21 l 1,20,21
 171 58 171 58 124 128 c 1,22,-1
 121 134 l 2,23,24
 82 219 82 219 82 356 c 0,25,26
 82 375 82 375 82 411 c 0,27,28
 83 448 83 448 83 466 c 0,29,30
 83 509 83 509 80 541 c 2,31,-1
 76 586 l 2,32,33
 75 626 75 626 74 665 c 0,34,35
 71 709 71 709 52 741 c 1,36,-1
 39 758 l 1,37,-1
 21 762 l 1,38,39
 44 767 44 767 90 765.5 c 128,-1,40
 136 764 136 764 159 769 c 1,41,42
 161 720 161 720 156 624 c 1,43,44
 156 328 156 328 173 210 c 1,45,-1
 180 190 l 2,46,47
 205 116 205 116 283 73 c 0,48,49
 352 35 352 35 418 41 c 2,50,-1
 484 48 l 1,51,-1
 494 55 l 1,52,-1
 580 86 l 1,53,-1
 597 97 l 1,54,-1
 608 100 l 1,55,-1
 659 141 l 1,56,57
 682 176 682 176 682 223 c 0,58,59
 682 238 682 238 680 262 c 2,60,-1
 684 345 l 1,61,-1
 684 403 l 1,62,-1
 673 562 l 1,63,-1
 670 665 l 1,64,-1
 663 697 l 1,65,-1
 635 741 l 1,66,-1
 597 762 l 1,67,-1
 601 769 l 1,68,-1
 632 769 l 1,69,-1
 649 783 l 1,70,-1
 656 766 l 1,71,-1
 745 766 l 1,72,-1
 753 762 l 1,73,-1
 749 725 l 1,74,-1
 749 614 l 1,75,-1
 753 555 l 1,76,-1
 749 520 l 1,77,-1
 749 500 l 1,78,-1
 753 279 l 1,79,-1
 756 279 l 1,80,-1
 763 273 l 1,81,-1
 749 238 l 1,82,-1
 749 224 l 1,83,-1
 763 65 l 1,84,85
 772 67 772 67 773 62 c 0,86,87
 773 59 773 59 770 51 c 1,88,-1
 773 45 l 1,89,-1
 797 31 l 1,90,-1
 811 21 l 1,0,-1
EndSplineSet
Validated: 33
EndChar
StartChar: V
Encoding: 86 86 42
Width: 872
Flags: W
HStem: 766 20G<144.5 184.903> 766 20G<144.5 184.903> 786 14<830 856>
LayerCount: 2
Fore
SplineSet
861 786 m 1,0,-1
 830 780 l 1,1,2
 765 695 765 695 710 580 c 0,3,4
 664 478 664 478 618 377 c 2,5,-1
 540 216 l 1,6,-1
 441 18 l 1,7,-1
 434 21 l 1,8,-1
 82 698 l 2,9,10
 68 719 68 719 17 763 c 0,11,12
 10 768 10 768 0 776 c 1,13,14
 97 776 97 776 192 786 c 1,15,-1
 181 755 l 1,16,17
 177 717 177 717 199 665 c 0,18,19
 221 620 221 620 243 575 c 1,20,-1
 256 554 l 1,21,-1
 454 148 l 1,22,23
 483 213 483 213 557 353 c 0,24,25
 628 489 628 489 658 560 c 0,26,27
 707 674 707 674 717 766 c 1,28,-1
 694 786 l 1,29,-1
 694 793 l 1,30,-1
 806 793 l 1,31,-1
 851 800 l 1,32,-1
 861 786 l 1,0,-1
EndSplineSet
Validated: 33
EndChar
StartChar: Y
Encoding: 89 89 45
Width: 731
Flags: W
LayerCount: 2
Fore
SplineSet
755 782 m 1,0,-1
 751 775 l 1,1,-1
 720 764 l 1,2,-1
 690 741 l 2,3,4
 667 724 667 724 601 638 c 2,5,-1
 403 379 l 1,6,-1
 403 126 l 1,7,-1
 409 71 l 1,8,-1
 416 58 l 1,9,-1
 447 19 l 1,10,11
 403 25 403 25 364 25 c 0,12,13
 324 25 324 25 283 19 c 1,14,-1
 273 19 l 1,15,-1
 280 33 l 1,16,-1
 283 33 l 1,17,-1
 310 50 l 1,18,19
 326 100 326 100 326 166 c 0,20,21
 326 188 326 188 323.5 231 c 128,-1,22
 321 274 321 274 321 296 c 0,23,24
 321 324 321 324 324 347 c 1,25,-1
 321 379 l 1,26,-1
 307 399 l 1,27,-1
 252 467 l 1,28,-1
 140 614 l 2,29,30
 37 747 37 747 -45 785 c 1,31,32
 -1 785 -1 785 92 778 c 1,33,-1
 143 788 l 1,34,-1
 150 747 l 1,35,-1
 177 696 l 1,36,-1
 191 679 l 1,37,-1
 256 586 l 1,38,-1
 280 556 l 1,39,-1
 331 484 l 1,40,-1
 348 471 l 1,41,-1
 382 423 l 1,42,43
 572 635 572 635 597 751 c 1,44,-1
 581 775 l 1,45,-1
 581 778 l 1,46,47
 601 774 601 774 623 774 c 0,48,49
 644 774 644 774 679 779 c 0,50,51
 720 784 720 784 734 785 c 2,52,-1
 755 782 l 1,0,-1
EndSplineSet
Validated: 1
EndChar
StartChar: Z
Encoding: 90 90 46
Width: 662
Flags: W
HStem: 15 30<199.5 425 435 523.539> 742 44<96.5625 331.286> 749 27<261 501.7>
LayerCount: 2
Fore
SplineSet
650 776 m 1,0,1
 363 392 363 392 145 59 c 1,2,-1
 254 45 l 1,3,-1
 299 45 l 1,4,-1
 384 49 l 1,5,6
 455 45 455 45 558 66 c 2,7,-1
 575 69 l 1,8,-1
 578 76 l 1,9,-1
 616 123 l 1,10,-1
 620 123 l 1,11,-1
 592 11 l 1,12,-1
 534 11 l 1,13,-1
 510 15 l 1,14,-1
 469 15 l 1,15,-1
 435 11 l 1,16,-1
 432 18 l 1,17,-1
 425 15 l 1,18,-1
 12 15 l 1,19,-1
 22 39 l 1,20,21
 230 283 230 283 520 739 c 1,22,-1
 459 749 l 1,23,-1
 384 749 l 1,24,-1
 261 742 l 2,25,26
 210 741 210 741 160 739 c 0,27,28
 103 733 103 733 66 698 c 1,29,-1
 49 694 l 1,30,-1
 87 786 l 1,31,-1
 486 776 l 1,32,-1
 650 776 l 1,0,1
EndSplineSet
Validated: 33
EndChar
StartChar: bracketleft
Encoding: 91 91 77
Width: 439
Flags: W
LayerCount: 2
Fore
SplineSet
359.727539062 28 m 1,0,-1
 140.727539062 30 l 258,1,2
 136 30 136 30 91.7275390625 26 c 1,3,-1
 68.7275390625 30 l 1,4,5
 68.98828125 35.7490234375 68.98828125 35.7490234375 74.7275390625 40 c 2,6,-1
 101.727539062 60 l 1,7,8
 117 93 117 93 116.727539062 156 c 0,9,10
 117 219 117 219 121.727539062 242 c 1,11,-1
 121.727539062 501 l 1,12,-1
 111.727539062 669 l 1,13,-1
 98.7275390625 730 l 1,14,-1
 81.7275390625 753 l 1,15,-1
 70 759 l 1,16,-1
 65 785 l 1,17,-1
 76 792 l 1,18,-1
 99 787 l 1,19,20
 146 774 146 774 171.727539062 774 c 2,21,-1
 191.727539062 774 l 1,22,23
 285 783 285 783 373.727539062 783 c 1,24,-1
 372.727539062 755 l 1,25,26
 230 755 230 755 201.727539062 750 c 1,27,28
 190 705 190 705 187.727539062 646 c 1,29,30
 189 701 189 701 188.727539062 542 c 2,31,-1
 188.727539062 514 l 1,32,-1
 181.727539062 434 l 1,33,-1
 185.727539062 232 l 1,34,35
 186 169 186 169 188.227539062 140.5 c 0,36,37
 191 112 191 112 205.727539062 77 c 1,38,39
 223 80 223 80 267.227539062 70 c 0,40,41
 312 60 312 60 358.727539062 76 c 1,42,-1
 359.727539062 28 l 1,0,-1
EndSplineSet
EndChar
StartChar: asciicircum
Encoding: 94 94 87
Width: 506
Flags: W
LayerCount: 2
Fore
SplineSet
249 800 m 1,0,-1
 275 778 l 1,1,-1
 393.615234375 667.502929688 l 1,2,-1
 430 636 l 1,3,-1
 460 630 l 1,4,-1
 471.694335938 635.807617188 l 1,5,-1
 491.627929688 625.374023438 l 1,6,-1
 488.709960938 612.973632812 l 1,7,-1
 470.088867188 597.857421875 l 1,8,9
 470.015625 597.153320312 470.015625 597.153320312 438.712890625 574.88671875 c 258,10,11
 400 547 400 547 400.08984375 547.413085938 c 1,12,-1
 382.106445312 531.747070312 l 1,13,14
 378.07421875 534.94140625 378.07421875 534.94140625 379.755859375 541.915039062 c 2,15,-1
 388.048828125 576.310546875 l 1,16,17
 388 587 388 587 365 620 c 0,18,19
 271 706 l 1,20,-1
 256 705 l 1,21,-1
 239 735 l 1,22,-1
 128 628 l 1,23,-1
 115 601 l 1,24,-1
 140.879882812 575.741210938 l 1,25,-1
 149.217773438 565.690429688 l 1,26,-1
 143.638671875 543.895507812 l 1,27,-1
 130.899414062 543.888671875 l 1,28,-1
 116.073242188 555.420898438 l 1,29,30
 113.11328125 558.868164062 113.11328125 558.868164062 92.0146484375 568.41015625 c 2,31,32
 72 579 72 579 37.1669921875 593.21484375 c 1,33,-1
 17.7900390625 607.122070312 l 1,34,35
 20.8037109375 611.702148438 20.8037109375 611.702148438 27.1484375 611.743164062 c 2,36,-1
 67 612 l 1,37,38
 110 657 l 0,39,40
 236 774 l 1,41,-1
 249 800 l 1,0,-1
EndSplineSet
EndChar
StartChar: k
Encoding: 107 107 57
Width: 744
Flags: W
LayerCount: 2
Fore
SplineSet
750 31 m 1,0,-1
 686 20 l 1,1,-1
 544 20 l 1,2,-1
 547 51 l 1,3,-1
 513 81 l 1,4,-1
 422 152 l 2,5,6
 329 224 329 224 153 339 c 1,7,-1
 136 343 l 1,8,-1
 130 295 l 1,9,-1
 130 241 l 2,10,11
 130 167 130 167 140 89 c 1,12,-1
 150 68 l 1,13,-1
 167 40 l 1,14,-1
 191 20 l 1,15,-1
 178 24 l 1,16,-1
 170 20 l 1,17,-1
 85 31 l 1,18,-1
 -6 20 l 1,19,-1
 11 34 l 1,20,-1
 14 38 l 1,21,-1
 48 68 l 1,22,23
 60 103 60 103 62 193 c 2,24,-1
 65 332 l 1,25,-1
 59 407 l 1,26,-1
 62 471 l 1,27,-1
 62 505 l 1,28,-1
 59 560 l 1,29,-1
 59 583 l 2,30,31
 59 667 59 667 28 732 c 1,32,-1
 8 760 l 1,33,-1
 167 780 l 1,34,-1
 178 763 l 1,35,-1
 147 743 l 1,36,37
 134 676 134 676 133 567 c 0,38,39
 133 429 133 429 130 390 c 1,40,41
 307 535 307 535 465 726 c 1,42,-1
 473 760 l 1,43,-1
 473 784 l 1,44,-1
 584 777 l 1,45,-1
 608 773 l 1,46,47
 608 766 608 766 593 761 c 0,48,49
 571 754 571 754 564 749 c 0,50,51
 503 704 503 704 404 603 c 0,52,53
 300 496 300 496 252 458 c 1,54,-1
 211 417 l 1,55,-1
 211 407 l 1,56,57
 268 367 268 367 391 266 c 0,58,59
 508 170 508 170 570 127 c 0,60,61
 670 58 670 58 750 31 c 1,0,-1
EndSplineSet
Validated: 1
EndChar
StartChar: m
Encoding: 109 109 59
Width: 898
Flags: W
LayerCount: 2
Fore
SplineSet
896 28 m 1,0,-1
 862 17 l 1,1,-1
 807 17 l 1,2,-1
 729 10 l 1,3,-1
 713 28 l 1,4,-1
 736 28 l 1,5,6
 751 73 751 73 751 128 c 0,7,8
 751 162 751 162 743.5 228.5 c 128,-1,9
 736 295 736 295 736 329 c 1,10,-1
 729 357 l 1,11,-1
 733 357 l 1,12,-1
 702 583 l 1,13,14
 675 533 675 533 642 459 c 0,15,16
 614 398 614 398 587 336 c 0,17,18
 586 334 586 334 455 28 c 1,19,-1
 414 85 l 1,20,-1
 400 102 l 1,21,-1
 132 580 l 1,22,-1
 108 200 l 2,23,24
 103 114 103 114 103 115 c 1,25,26
 103 71 103 71 116 38 c 1,27,-1
 146 20 l 1,28,-1
 61 20 l 1,29,-1
 14 17 l 1,30,-1
 7 14 l 1,31,32
 2 21 2 21 2 24 c 0,33,34
 2 26 2 26 7 26.5 c 128,-1,35
 12 27 12 27 14 28 c 2,36,-1
 41 48 l 1,37,38
 64 144 64 144 73 276 c 0,39,40
 79 391 79 391 85 505 c 2,41,-1
 102 780 l 1,42,43
 111 782 111 782 115.5 774 c 128,-1,44
 120 766 120 766 126 763 c 2,45,-1
 149 722 l 2,46,47
 212 609 212 609 339 380 c 1,48,-1
 346 360 l 1,49,-1
 370 322 l 1,50,-1
 380 306 l 1,51,-1
 458 163 l 1,52,53
 605 460 605 460 719 770 c 1,54,-1
 736 800 l 1,55,-1
 759 784 l 1,56,-1
 766 695 l 1,57,-1
 766 678 l 1,58,-1
 827 115 l 1,59,-1
 841 68 l 1,60,-1
 858 38 l 1,61,-1
 896 28 l 1,0,-1
EndSplineSet
EndChar
StartChar: o
Encoding: 111 111 61
Width: 863
Flags: W
LayerCount: 2
Fore
SplineSet
370.5 426 m 0,0,1
 372 451 372 451 389 468.5 c 128,-1,2
 406 486 406 486 431 486 c 128,-1,3
 456 486 456 486 474 468.5 c 128,-1,4
 492 451 492 451 490.764648438 426.334960938 c 0,5,6
 490 401 490 401 473 383.5 c 128,-1,7
 456 366 456 366 431 366 c 128,-1,8
 406 366 406 366 387.530273438 383.998046875 c 128,-1,9
 369 402 369 402 370.5 426 c 0,0,1
833 531 m 0,10,11
 850 471 850 471 850 415 c 0,12,13
 850 247 850 247 705 110 c 1,14,-1
 674 86 l 1,15,-1
 629 62 l 1,16,-1
 612 48 l 1,17,18
 516 7 516 7 402 7 c 1,19,-1
 391 10 l 1,20,21
 269 10 269 10 164 100 c 2,22,-1
 136 124 l 1,23,-1
 88 182 l 1,24,-1
 74 203 l 1,25,-1
 63 221 l 1,26,-1
 36 279 l 1,27,-1
 22 324 l 2,28,29
 21 344 21 344 15 383 c 0,30,31
 13 397 13 397 13 412 c 0,32,33
 13 515 13 515 84 620 c 0,34,35
 159.218658892 732.326530612 159.218658892 732.326530612 264 769 c 2,36,-1
 284 776 l 1,37,-1
 305 783 l 2,38,39
 374 806 374 806 446 805 c 0,40,41
 463 805 463 805 481 803 c 0,42,43
 584 796 584 796 690 718 c 0,44,45
 804 634 804 634 833 531 c 0,10,11
771 410 m 0,46,47
 771 478 771 478 750 538 c 0,48,49
 714 643 714 643 647 707 c 1,50,51
 550 782 550 782 437 782 c 0,52,53
 384 782 384 782 319 766 c 1,54,-1
 298 755 l 1,55,-1
 277 748 l 1,56,57
 185 700 185 700 133 576 c 1,58,59
 138 573 138 573 134 569 c 0,60,61
 130 566 130 566 122 566 c 1,62,-1
 95 428 l 1,63,-1
 98 383 l 1,64,-1
 116 273 l 1,65,-1
 126 242 l 1,66,-1
 139 213 l 1,67,-1
 143 196 l 1,68,-1
 160 165 l 1,69,-1
 201 120 l 1,70,71
 208 114 208 114 233 97 c 2,72,-1
 264 76 l 1,73,-1
 305 55 l 1,74,-1
 370 34 l 1,75,-1
 395 34 l 1,76,-1
 402 31 l 1,77,-1
 450 34 l 1,78,-1
 474 34 l 1,79,80
 504 41 504 41 534 48 c 0,81,82
 573 57 573 57 591 69 c 2,83,-1
 626 93 l 2,84,85
 771 192.428571429 771 192.428571429 771 410 c 0,46,47
EndSplineSet
Validated: 524321
EndChar
StartChar: r
Encoding: 114 114 64
Width: 708
Flags: W
LayerCount: 2
Fore
SplineSet
695 48 m 1,0,-1
 688 24 l 1,1,-1
 651 10 l 1,2,-1
 644 10 l 2,3,4
 573 10 573 10 516 79 c 2,5,-1
 471 134 l 1,6,-1
 378 289 l 1,7,-1
 330 341 l 1,8,9
 303 350 303 350 247 350 c 128,-1,10
 191 350 191 350 164 359 c 1,11,-1
 157 355 l 1,12,13
 157 210 157 210 157 210 c 2,14,15
 158 171 158 171 160 131 c 0,16,17
 162 88 162 88 171 55 c 1,18,-1
 196 27 l 1,19,-1
 196 10 l 1,20,21
 169.9 18.1 169.9 18.1 130.03 18.1 c 0,22,23
 125.6 18.1 125.6 18.1 121 18 c 0,24,25
 51 17 51 17 47 17 c 0,26,27
 38 17 38 17 37 17 c 2,28,-1
 40 34 l 1,29,-1
 54 34 l 1,30,-1
 78 58 l 1,31,32
 97 308 97 308 97 399 c 0,33,34
 97 591 97 591 54 741 c 1,35,-1
 30 762 l 1,36,-1
 13 779 l 1,37,38
 50 772 50 772 97 772 c 0,39,40
 127 772 127 772 187 776 c 128,-1,41
 247 780 247 780 277 780 c 0,42,43
 418 780 418 780 509 693 c 1,44,45
 545 635 545 635 545 580 c 0,46,47
 545 512 545 512 488 438 c 1,48,-1
 451 403 l 1,49,50
 425 391 425 391 371 365 c 1,51,-1
 388 359 l 1,52,-1
 430 331 l 1,53,-1
 488 248 l 1,54,-1
 498 231 l 2,55,56
 539 162 539 162 550 145 c 0,57,58
 583 95 583 95 620 62 c 0,59,60
 639 44 639 44 663 44 c 0,61,62
 667 44 667 44 695 48 c 1,0,-1
471 558 m 0,63,64
 468 644 468 644 437 690 c 1,65,66
 370 762 370 762 263 762 c 0,67,68
 253 762 253 762 161 755 c 1,69,-1
 154 558 l 1,70,-1
 154 496 l 2,71,72
 153.636363636 488.727272727 153.636363636 488.727272727 153.636363636 480.132231405 c 0,73,74
 153.636363636 441.454545455 153.636363636 441.454545455 161 376 c 1,75,-1
 196 372 l 1,76,-1
 206 369 l 1,77,-1
 213 372 l 1,78,79
 234.461538462 370.615384615 234.461538462 370.615384615 253.526627219 370.615384615 c 0,80,81
 317.076923077 370.615384615 317.076923077 370.615384615 354 386 c 1,82,83
 404 401 404 401 438.5 454 c 0,84,85
 471.109589041 504.095890411 471.109589041 504.095890411 471.109589041 552.404954025 c 0,86,87
 471.109589041 555.205479452 471.109589041 555.205479452 471 558 c 0,63,64
EndSplineSet
Validated: 524289
EndChar
StartChar: t
Encoding: 116 116 66
Width: 609
Flags: W
LayerCount: 2
Fore
SplineSet
638.5859375 699 m 1,0,-1
 624.5859375 682 l 1,1,-1
 593.5859375 716 l 1,2,3
 549.5859375 728 549.5859375 728 483.5859375 729 c 0,4,5
 428.5859375 730 428.5859375 730 372.5859375 730 c 1,6,-1
 365.5859375 689 l 1,7,-1
 365.5859375 392 l 1,8,-1
 372.5859375 351 l 1,9,-1
 372.5859375 306 l 2,10,11
 372.5859375 168 372.5859375 168 386.5859375 58 c 1,12,-1
 396.5859375 41 l 1,13,-1
 424.5859375 20 l 1,14,-1
 248.5859375 9 l 1,15,-1
 241.5859375 13 l 1,16,-1
 238.5859375 27 l 1,17,-1
 258.5859375 30 l 1,18,-1
 262.5859375 30 l 1,19,20
 298.5859375 100 298.5859375 100 298.5859375 208 c 0,21,22
 298.5859375 222 298.5859375 222 297.5859375 267 c 0,23,24
 296.5859375 304 296.5859375 304 297.5859375 327 c 0,25,26
 300.5859375 353 300.5859375 353 300.5859375 444 c 2,27,-1
 300.5859375 499 l 1,28,-1
 293.5859375 696 l 1,29,-1
 289.5859375 730 l 1,30,-1
 193.5859375 737 l 1,31,-1
 169.5859375 737 l 1,32,-1
 52.5859375 716 l 1,33,-1
 48.5859375 713 l 1,34,-1
 17.5859375 672 l 1,35,36
 13.5859375 676 13.5859375 676 13.5859375 684 c 0,37,38
 13.5859375 693 13.5859375 693 20.5859375 718 c 128,-1,39
 27.5859375 743 27.5859375 743 27.5859375 754 c 1,40,-1
 38.5859375 772 l 1,41,-1
 100.5859375 772 l 1,42,-1
 469.5859375 765 l 1,43,-1
 572.5859375 768 l 1,44,-1
 624.5859375 768 l 1,45,-1
 628.5859375 754 l 1,46,-1
 638.5859375 699 l 1,0,-1
EndSplineSet
EndChar
StartChar: asciitilde
Encoding: 126 126 89
Width: 522
Flags: W
VStem: 482 19.5<663.591 671.074>
LayerCount: 2
Fore
SplineSet
11 625.780273438 m 0,0,1
 104 743.490234375 104 743.490234375 170 701.620117188 c 0,2,3
 281 638.419921875 l 0,4,5
 428.75 542.830078125 428.75 542.830078125 482 684.240234375 c 0,6,7
 501.5 663.700195312 l 1,8,9
 458.75 451.98046875 458.75 451.98046875 243.5 599.709960938 c 0,10,11
 89 706.360351562 89 706.360351562 21.5 600.5 c 0,12,13
 11 625.780273438 l 0,0,1
EndSplineSet
Validated: 524321
EndChar
StartChar: quoteleft
Encoding: 8216 8216 73
Width: 162
Flags: W
LayerCount: 2
Fore
SplineSet
29 733 m 1,0,1
 60 757 60 757 73 796 c 1,2,3
 90 761 90 761 133 730 c 1,4,5
 111 710 111 710 82 681 c 0,6,7
 76 673 76 673 76 659 c 0,8,9
 76 640 76 640 90 604 c 1,10,11
 81 612 81 612 59 665 c 0,12,13
 35 724 35 724 29 733 c 1,0,1
EndSplineSet
Validated: 1
EndChar
StartChar: quoteright
Encoding: 8217 8217 74
Width: 159
Flags: W
LayerCount: 2
Fore
SplineSet
132 731 m 1,0,1
 125 722 125 722 101 663 c 0,2,3
 80 610 80 610 71 602 c 1,4,5
 84 638 84 638 84 657 c 0,6,7
 84 671 84 671 79 679 c 0,8,9
 49 708 49 708 28 728 c 1,10,11
 71 759 71 759 88 794 c 1,12,13
 100 755 100 755 132 731 c 1,0,1
EndSplineSet
Validated: 1
EndChar
StartChar: quotedblleft
Encoding: 8220 8220 75
Width: 289
Flags: W
LayerCount: 2
Fore
SplineSet
164 729 m 1,0,1
 195 753 195 753 208 792 c 1,2,3
 225 757 225 757 268 726 c 1,4,5
 246 706 246 706 217 677 c 0,6,7
 211 669 211 669 211 655 c 0,8,9
 211 636 211 636 225 600 c 1,10,11
 216 608 216 608 194 661 c 0,12,13
 170 720 170 720 164 729 c 1,0,1
26 732 m 1,14,15
 57 756 57 756 70 795 c 1,16,17
 87 760 87 760 130 729 c 1,18,19
 108 709 108 709 79 680 c 0,20,21
 73 672 73 672 73 658 c 0,22,23
 73 639 73 639 87 603 c 1,24,25
 78 611 78 611 56 664 c 0,26,27
 32 723 32 723 26 732 c 1,14,15
EndSplineSet
Validated: 1
EndChar
StartChar: quotedblright
Encoding: 8221 8221 76
Width: 289
Flags: W
HStem: 606 192
VStem: 24 242
LayerCount: 2
Fore
SplineSet
128 735 m 1,0,1
 121 726 121 726 97 667 c 0,2,3
 76 614 76 614 67 606 c 1,4,5
 80 642 80 642 80 661 c 0,6,7
 80 675 80 675 75 683 c 0,8,9
 45 712 45 712 24 732 c 1,10,11
 67 763 67 763 84 798 c 1,12,13
 96 759 96 759 128 735 c 1,0,1
266 738 m 1,14,15
 259 729 259 729 235 670 c 0,16,17
 214 617 214 617 205 609 c 1,18,19
 218 645 218 645 218 664 c 0,20,21
 218 678 218 678 213 686 c 0,22,23
 183 715 183 715 162 735 c 1,24,25
 205 766 205 766 222 801 c 1,26,27
 234 762 234 762 266 738 c 1,14,15
EndSplineSet
Validated: 1
EndChar
